<?xml version="1.0" encoding="UTF-8" standalone="no"?>
<svg
   xmlns:dc="http://purl.org/dc/elements/1.1/"
   xmlns:cc="http://creativecommons.org/ns#"
   xmlns:rdf="http://www.w3.org/1999/02/22-rdf-syntax-ns#"
   xmlns:svg="http://www.w3.org/2000/svg"
   xmlns="http://www.w3.org/2000/svg"
   height="3561"
   width="3561"
   version="1.1"
   id="svg5040">
  <metadata
     id="metadata5046">
    <rdf:RDF>
      <cc:Work
         rdf:about="">
        <dc:format>image/svg+xml</dc:format>
        <dc:type
           rdf:resource="http://purl.org/dc/dcmitype/StillImage" />
        <dc:title></dc:title>
      </cc:Work>
    </rdf:RDF>
  </metadata>
  <defs
     id="defs5044" />
  <path
     id="path5056"
     d="M 1705,3559.8971 C 1407.4822,3547.5831 1113.2928,3459.5255 858.88035,3304.5729 555.74308,3121.518 309.52805,2845.9999 161.95002,2524.0648 34.729981,2249.1245 -18.536695,1941.1956 5.2803945,1639.391 28.320187,1339.6737 129.56078,1046.4912 296.26329,796.34917 497.12539,493.11773 792.78836,253.62045 1131.8834,121.70135 1514.7607,-29.011512 1950.2496,-40.130621 2340.5905,89.760279 2675.183,199.78288 2974.4241,412.78363 3189.5644,691.4772 c 179.4496,231.62305 300.7225,508.0924 347.921,797.3647 54.5868,330.9255 14.8471,677.2745 -116.6293,986.0765 -150.1827,356.224 -420.3178,660.0936 -756.0264,851.6677 -272.856,156.7834 -588.1674,239.1297 -902.9089,234.1932 -18.9729,-0.1216 -37.9705,-0.1907 -56.9208,-0.8822 z M 1770,3087.5 c 0,-151.1667 0,-302.3333 0,-453.5 -162.9403,-1.1327 -325.0107,-51.1979 -460.6007,-141.5128 -7.8899,-2.1415 -17.4997,-17.3402 -23.8956,-12.8568 -177.0478,243.6839 -354.09266,487.37 -531.16173,731.0385 219.80717,158.0894 476.50693,264.5036 743.88333,307.4364 89.8168,14.9114 180.8129,21.2568 271.7747,22.8947 0,-151.1667 0,-302.3333 0,-453.5 z m -661.5,279.8865 c -63.1285,-3.2654 -123.10601,-41.2876 -151.88316,-97.7756 -35.82416,-66.3802 -23.99805,-154.6015 28.62642,-208.7637 48.12484,-53.7673 129.58724,-71.9689 196.72794,-46.6552 9.049,-6.7989 11.5341,-27.8343 18.1458,-39.2884 5.8722,-15.1982 -22.9511,-18.0959 -32.0871,-27.9224 -12.9097,-8.2113 -27.6246,-14.0793 -37.556,-26.1566 -9.0049,-10.5015 -22.0301,-16.1775 -27.2851,-28.869 -9.595,-8.1096 -22.1145,-31.6097 -29.4653,-9.4898 -8.6297,16.31 -27.4227,22.4914 -42.4752,10.7212 -16.3798,1.5104 -30.2387,-14.2964 -10.4142,-23.3817 15.7322,-7.0887 33.7064,-8.971 47.5265,-20.2295 17.1819,-10.0354 33.9189,-24.1201 54.5107,-25.5758 17.5036,8.637 -17.9221,15.6187 -24.0563,24.2011 -22.5135,13.0393 8.7108,27.385 18.3393,37.9197 10.3307,3.3422 14.6776,15.4134 23.4138,21.9001 11.4265,-10.1064 23.0092,-22.8867 34.2026,-34.045 32.1274,-32.151 54.317,-72.2851 83.4133,-106.8759 19.5314,-21.191 43.1934,-38.5257 69.0307,-51.2425 -10.8945,-7.8107 -18.3806,-19.8069 -27.0392,-30.4365 4.8129,-16.833 26.4001,-24.5958 34.4509,-40.5465 9.6013,-11.5427 21.0356,-25.2961 13.3591,-40.3474 19.0552,-18.3478 17.79,17.9749 9.3256,28.1142 -10.3327,14.3498 0.8453,39.1026 -23.6028,40.4784 -14.6224,5.0586 -14.6669,16.6506 -0.84,22.2813 10.1191,15.8206 26.2095,27.1752 40.0248,39.7646 7.7282,8.2952 20.1531,5.9288 28.6218,8.8179 8.2886,-4.3111 13.3882,8.0901 13.0836,13.4217 5.9177,8.4675 11.3394,4.8332 16.5595,-1.8263 51.5646,-49.3064 132.928,-62.4965 197.8531,-33.3698 67.6151,28.8585 112.9791,101.7623 108.5756,175.2306 -2.5797,66.2635 -44.3273,128.8258 -104.5849,156.5649 -61.0732,29.7068 -138.0583,20.374 -190.8461,-22.0835 -53.9327,-41.6775 -79.8658,-115.1001 -64.9335,-181.4926 5.7116,-27.0115 18.1021,-52.4533 34.8769,-74.3026 -8.7695,-11.1881 -22.5992,-2.0618 -31.5421,-14.2857 -7.1394,-8.9517 -13.3437,-6.657 -16.2239,5.1987 -11.7555,22.0562 -21.0256,45.8693 -21.1503,71.2132 -4.1882,58.7213 -7.2185,117.5199 -11.293,176.2489 15.154,8.2045 21.4035,25.3615 24.3333,41.2859 14.4308,4.8248 30.1492,9.5701 39.3896,-5.8474 23.0428,8.1852 -6.7179,23.2565 -13.6685,33.3478 -6.5605,10.7128 -17.3591,-3.2642 -8.0474,-9.7228 -13.0905,-4.4605 -24.6234,-4.1547 -28.3089,10.9538 -15.8067,18.4023 -36.0378,32.7915 -50.9892,51.8365 10.9647,44.4639 6.8627,92.91 -14.9837,133.5301 -31.8315,62.4013 -101.2822,101.5669 -171.115,97.5016 z m 38.5,-39.8874 c 53.0977,-10.7163 98.2415,-52.7522 111.5228,-105.4377 4.6222,-18.4857 5.4582,-38.091 3.3658,-56.9874 -35.8998,33.4368 -70.9924,67.7864 -107.8831,100.1246 -21.9881,4.3223 -21.7919,-25.8178 -3.9179,-31.931 0.2143,-7.1159 -3.5748,-29.3051 -14.9346,-17.3337 -20.2112,11.8549 -49.3112,-2.8524 -50.7105,-26.5112 -2.7634,-21.3362 17.0354,-40.3733 38.1111,-38.5107 5.2106,-2.0089 5.6049,-10.9653 8.8601,-15.7948 12.4457,-28.577 25.2428,-57.0008 37.5863,-85.6218 -58.0461,-23.2455 -129.2002,-2.0523 -166.3224,48.0028 -36.96583,47.5296 -39.45537,118.4844 -5.04458,168.0938 28.51028,43.9291 82.22958,69.5069 134.34408,63.6785 5.0303,-0.3296 10.0829,-0.7197 15.0229,-1.7714 z m 63.4496,-120.3963 c 16.948,-15.9721 34.0701,-31.7624 50.8417,-47.9204 -3.962,-17.5209 -10.1578,-34.6139 -19.3407,-50.0957 -31.021,19.9863 -61.8357,40.3245 -91.6656,62.0614 9.4974,11.0417 -9.4607,34.2732 10.2325,31.8224 21.473,3.4183 12.266,27.2896 -1.3316,34.1207 -0.05,14.8645 7.1748,14.7548 14.8011,4.1425 12.1867,-11.3421 24.3077,-22.7547 36.4626,-34.1309 z m -87.4989,-16.0764 c 12.3159,-14.8103 -20.2075,-11.8252 -6.5334,0.018 l 3.2258,0.7644 3.3076,-0.7822 0,0 z m 47.0778,-53.2637 c 20.2942,-14.5772 41.9269,-27.2661 61.8968,-42.2627 -5.2065,-3.351 -10.721,-19.0057 -17.2524,-14.8147 -22.409,19.8449 -45.6673,39.1776 -67.3934,59.6034 -3.383,7.1354 -12.8782,24.8906 0.6366,13.0815 7.3405,-5.2453 14.7228,-10.4318 22.1124,-15.6075 z m 151.6273,-36.4403 c -15.9129,4.8878 -33.0549,0.5805 -46.3001,-8.9821 6.5541,12.1161 12.5131,24.5758 16.8392,37.6755 9.8386,-9.5358 20.1836,-18.6124 29.4609,-28.6934 z m -136.1929,-1.3801 c 8.3641,-10.6111 39.8263,-24.5303 15.1976,-34.0094 -8.2479,-6.1584 -19.2057,-15.1568 -21.0683,0.9624 -9.1931,20.6169 -18.2324,41.3133 -27.4793,61.8992 11.4845,-9.1478 22.2128,-19.2698 33.35,-28.8522 z m 203.4972,-29.3943 c 2.3402,-15.2558 -14.4745,4.6019 0,0 z m -128.8445,-3.6462 c 5.532,-12.0623 -21.9329,-15.2057 -7.0135,-4.2608 1.1909,0.4902 11.0237,13.7903 7.0135,4.2608 z m 53.3905,-4.1534 c 15.1643,-16.1108 -21.6734,-25.5547 -16.0519,-4.3883 2.0509,6.3985 11.0318,8.9404 16.0519,4.3883 z M 1261,3040.882 c -2.5105,-2.451 -1.9005,5.3817 0,0 z m -2.4614,-5.0004 c 18.7099,-9.324 -6.8129,-21.4573 -12.953,-31.0776 -4.556,-2.539 -7.6796,-12.6062 -13.2873,-9.6178 -12.6032,6.3898 -29.5734,10.5372 -33.1267,26.2376 9.2824,1.266 20.535,19.2558 27.8811,12.5522 6.7111,-13.7903 20.1685,-1.1781 17.9574,7.1316 5.4078,2.4184 9.8187,-1.9972 13.5285,-5.226 z m 317.9614,-3.2975 c 65.8271,-8.4839 120.3357,-67.5452 123.5299,-133.8478 5.0068,-59.7363 -31.6999,-119.4733 -86.8107,-142.7102 -53.5175,-24.3266 -121.211,-10.9866 -161.4699,31.8149 36.0673,31.103 70.58,64.0581 107.2895,94.3567 4.6451,21.5854 -20.8781,7.1817 -27.5907,-1.9675 -30.6315,-26.3263 -60.142,-53.9239 -90.6294,-80.4166 -34.7268,43.6983 -40.029,107.5441 -13.6536,156.6226 25.1886,49.0303 79.9281,80.8593 135.1279,77.4239 4.7536,-0.17 9.5034,-0.5575 14.207,-1.276 z m -290.6526,-20.2994 c 7.5994,-10.0537 31.1103,2.9675 30.2099,-10.2825 2.6532,-65.9006 0.1691,-132.0011 5.0823,-197.8008 2.8189,-20.8598 15.2318,-38.9592 19.3375,-59.2809 -10.827,-16.4587 -32.4292,5.6013 -45.1253,10.8369 -9.704,6.6405 -20.1866,14.0831 -27.2193,23.232 -3.9002,39.2901 -9.2679,78.7475 -23.0899,115.9569 -7.195,21.9522 -14.4821,43.8742 -21.7226,65.8115 9.5279,6.9568 16.3248,16.6706 28.6451,15.2179 2.1935,8.2388 -1.1163,15.3111 8.4253,21.004 7.9063,5.5886 15.1836,24.2642 25.457,15.305 z m -64.2045,-28.8396 c 5.2907,-1.5135 -7.9522,-12.7112 -7.0697,-0.7504 -2.0106,4.4714 5.6502,0.2442 7.0697,0.7504 z M 1224.3093,2906 c 10.8889,-32.4769 21.4179,-65.3957 24.2695,-99.7271 -24.0676,35.9595 -47.3644,72.8206 -77.9608,103.746 -3.9344,8.795 10.3613,18.6259 15.9275,25.3822 9.3435,8.3892 26.4757,25.6485 27.3204,2.2479 3.5339,-10.5322 7.0017,-21.0864 10.4434,-31.649 z m 331.5282,-18.8869 c -5.5208,-14.6604 -10.1125,11.4294 0,0 z m -212.292,-224.5676 c 11.0494,-18.4291 -24.5111,-8.4905 -5.8967,1.9736 2.2115,1.5234 4.4282,-0.6547 5.8967,-1.9736 z m 490.4088,876.9688 c 165.2099,-4.2536 329.727,-32.9786 487.0253,-83.5445 173.5553,-55.4654 337.5926,-139.379 485.8165,-245.1671 -177.6482,-244.5723 -355.3532,-489.1033 -533.0298,-733.655 C 2133.9174,2577.057 1962.9123,2632.8935 1791,2634 c 0,302.3248 0,604.6497 0,906.9745 14.2929,-1.0334 28.634,-1.1089 42.9543,-1.4602 z M 2133,3468.4466 c -27.3021,-2.4278 -54.9556,-2.035 -82,-6.7227 0.3834,-74.0989 -1.9637,-148.1782 -4.2253,-222.2239 -0.038,-21.0948 6.4684,-41.2958 9.1731,-61.9931 -2.7745,-8.4573 1.1422,-26.1533 -6.2445,-29.5165 -67.3909,-0.3179 -134.7909,-0.1359 -202.1735,-1.1395 -11.6223,-56.7433 -7.3574,-115.0754 -7.2103,-172.5915 1.8396,-80.594 7.0555,-161.2714 2.9606,-241.8728 70.7926,-5.0323 141.7859,-7.2938 212.7199,-9.6412 1.2989,-29.2832 -5.1433,-58.4202 -2.0259,-87.6409 1.6187,-19.6664 21.9061,-25.6133 38.1656,-28.6605 33.4746,-8.7746 70.8057,-7.6026 100.8603,10.9769 0,35.3018 0,70.6036 0,105.9054 63.555,-0.7768 127.1568,-0.2826 190.6618,-2.9978 2.4054,68.1845 3.4697,136.4376 3.3432,204.6715 -10.6285,-5.3331 -13.2807,-26.1359 -29.097,-29.0606 -25.7902,-12.0233 -59.2164,9.1387 -58.4007,37.8217 -3.7779,8.8893 10.9591,20.6466 0.2051,25.2353 -56.6394,37.5718 -93.6594,102.1591 -98.0072,169.9391 -2.2351,8.107 4.3686,23.9217 -8.9805,20.0645 -0.611,50.2551 -0.2658,101.4681 -0.5091,152.0916 -0.2819,53.1337 0.09,106.2871 -1.2117,159.405 -12.3452,12.1503 -32.7944,7.6915 -48.7324,8.4576 -3.0925,-0.1293 -6.1844,-0.3053 -9.2715,-0.5076 z m -87,-457.4158 c 0,-17.6564 0,-35.3128 0,-52.9692 48.6203,-0.575 97.3014,0.5794 145.873,-1.4575 17.0874,-6.4175 32.5823,-17.6443 49.3382,-25.488 17.605,-10.285 -17.5649,-14.9985 -23.1151,-24.1047 -9.668,-3.7258 -18.7491,-9.5251 -28.3766,-13.0114 -69.1547,0 -138.3093,0 -207.4639,0 -2.7694,22.0091 2.704,44.347 -0.8434,66.3383 3.5103,17.9004 0.288,35.6794 0.4965,53.6979 -0.062,16.6546 0.048,33.3092 0.091,49.9638 21.3333,0 42.6667,0 64,0 10e-5,-17.6563 -3e-4,-35.3132 2e-4,-52.9692 z m 204.1713,-146.2882 c -0.1286,-19.8173 1.613,-39.7853 0.029,-59.5069 -51.3568,-2.2923 -102.9215,-0.7982 -154.3623,-1.2341 -37.945,0.1143 -75.8955,-0.069 -113.8363,0.4973 -0.9378,20.6833 -0.5072,41.5412 1.1472,62.1806 15.9533,3.6037 33.5162,0.7673 50.1238,1.6556 72.2425,-0.015 144.4849,-0.2241 216.7273,-0.3494 0.057,-1.081 0.1143,-2.1621 0.1713,-3.2431 z M 2407,3350.3126 c -69.5892,-4.9676 -134.8032,-47.5201 -167.2561,-109.2814 -40.1624,-72.6375 -30.0709,-168.9148 24.1353,-231.7415 16.7039,-19.9196 37.3727,-36.359 60.1004,-48.9037 -16.0579,-11.1356 -18.1413,-37.3221 -2.0402,-49.3983 16.4028,-14.8226 45.4098,-4.9458 49.4974,16.7315 -0.7003,10.4354 -0.2257,17.296 11.1439,11.623 75.5876,-15.7684 158.1435,15.5414 204.6422,77.1146 52.7903,66.8867 57.7451,167.1851 10.4339,238.3474 -40.0762,63.6769 -115.6754,101.4895 -190.6568,95.5084 z m 49,-41.2537 c 48.9393,-9.8427 92.1491,-42.1983 116.0545,-85.9302 -1.0365,-5.82 -15.1627,-7.6237 -21.5508,-11.8091 2.3542,-13.0023 10.1829,-26.6412 24.3195,-14.0087 14.9975,4.0708 12.2871,-23.7888 15.9182,-35.0491 8.1575,-64.1981 -24.8742,-130.8141 -80.3808,-163.8617 -16.7553,-16.143 -12.4388,29.3083 -31.2816,12.202 -14.2323,-1.6315 -4.9324,-12.5516 -1.3898,-21.2615 1.0016,-12.7995 -24.9031,-11.0112 -35.8329,-14.264 -56.6937,-6.6524 -116.6639,17.311 -151.1696,63.0101 35.0419,20.572 70.5281,40.3813 105.8133,60.534 -1.8311,12.3921 8.3092,18.3898 19.3227,14.2575 -1.3473,17.9783 24.6876,11.5922 23.1773,30.2061 1.4136,18.7736 -28.7321,22.6254 -32.5377,3.9642 -2.2398,-5.5978 -13.7919,1.0821 -15.2064,-4.5481 2.1548,-15.2283 -12.0009,-12.5897 -19.8929,-14.6547 -28.3686,-28.36 -56.7372,-56.72 -85.1057,-85.08 -7.4643,10.356 -20.4755,25.5589 0.2599,28.084 16.1121,-0 1.2299,32.8651 -9.6177,20.4532 -21.2208,-15.1176 -18.5805,21.2075 -22.3392,34.3302 -7.2036,62.8677 24.7498,127.5738 78.3878,160.8727 13.6203,14.6994 15.4987,-6.2589 22.271,-15.5058 13.8937,3.2191 24.4856,9.3332 13.6273,22.7084 -9.5385,11.0708 5.9766,11.6062 14.543,13.8726 23.5696,5.9519 48.7306,4.8737 72.6106,1.4779 z m 4.0772,-11.3089 c -4.8844,-8.5905 -6.915,-15.2616 4.9033,-12.9079 9.2535,2.937 24.1674,-9.7092 5.821,-7.332 -21.4799,8.1036 -33.8078,-24.192 -12.2851,-31.9745 11.6039,-6.8593 25.7431,-8.2004 27.0653,7.938 -6.1993,-0.8355 -33.4393,7.5229 -15.6432,8.3989 21.7954,-10.7028 38.9795,23.1984 15.7565,32.2287 -6.7335,2.2911 -19.794,8.8792 -25.6178,3.6488 z m -171.0837,-77.6293 c -21.843,-6.093 -29.3814,-41.7917 -6.635,-51.9299 17.0011,-11.2099 40.2556,1.3144 41.7204,21.1965 4.0638,20.0772 -17.1748,33.7854 -35.0854,30.7334 z m 13.935,-15.5837 c 16.8357,-11.9194 -15.6091,-40.8762 -17.1181,-14.8986 0.6597,8.0487 7.3374,20.4939 17.1181,14.8986 z m 237.3956,-83.287 c -3.0357,-14.7398 -19.0121,-34.5351 -14.3051,-46.8261 11.4131,-3.3033 38.4581,-23.4409 35.732,0.4524 -6.1254,0.7954 -27.1211,13.3527 -10.4277,9.4348 11.351,-13.1694 26.3234,10.1172 8.6465,11.8215 -17.1864,4.7207 -1.7707,12.3185 7.4502,4.4605 12.3662,-6.3635 14.0648,17.9266 -0.9024,15.5543 -7.5309,0.158 -21.6589,14.0301 -26.1935,5.1026 z m -188.6383,-92.9862 c -6.06,-12.7422 -14.6401,-30.0192 5.8136,-31.1732 5.9596,1.1995 10.61,8.9349 16.1652,12.3876 18.6091,14.7595 -14.5958,-24.4093 8.0743,-22.1953 10.7155,-6.3655 9.5744,15.3731 14.8575,21.5232 3.195,12.0074 19.2757,30.4547 -2.589,31.6356 -6.685,4.0321 -10.7842,-6.8342 -16.3306,-9.3008 -5.9548,-5.2406 -14.1773,-14.3037 -7.8904,-2.1866 7.4952,10.3734 7.6188,24.0185 -7.917,22.9294 -4.351,-7.4018 -6.8913,-15.7217 -10.1836,-23.6199 z m -5.1403,-88.7183 c 11.2383,-16.0087 -22.2556,-13.883 -9.8306,0.6441 2.8213,2.3804 7.3268,2.0559 9.8306,-0.6441 z M 1003.441,2832.4711 c 88.6559,-122.1698 177.5461,-244.1718 265.8186,-366.6185 -25.2274,-22.4268 -52.5137,-42.6984 -76.5504,-66.5613 -100.3451,-94.7438 -176.4974,-214.4336 -221.21267,-344.9042 -286.10447,92.987 -572.19533,186.0198 -858.33051,278.9091 -5.86389,12.2133 8.69767,30.605 11.53089,45.0594 117.19129,325.6893 333.43116,614.9085 612.4845,819.5974 89.18403,-121.5105 177.5713,-243.6084 266.25959,-365.4819 z M 881.62216,2804.947 c -15.76499,-4.1896 -18.37188,-24.5185 -18.138,-38.442 1.56413,-30.2357 15.35114,-58.2247 31.21469,-83.4333 26.7484,3.9999 -0.15724,26.6149 -2.70797,40.9485 -9.31943,21.4374 -13.39626,46.666 -5.80635,69.1634 4.75004,10.9988 14.89434,15.3561 -4.56237,11.7634 z m 28.68489,-1.9684 c -20.05047,-10.8885 -18.54589,-36.9814 -13.96444,-56.0667 4.87146,-17.9253 12.94938,-34.9954 22.99451,-50.5705 17.24238,2.5432 34.03248,11.124 52.08851,11.0285 25.08255,2.0967 51.84547,-1.5045 72.22867,-17.3059 -4.3313,24.1466 -16.5171,48.2479 -35.2859,64.9897 -22.51782,22.0635 -48.5319,43.2958 -80.66613,48.2447 -5.65815,0.8949 -12.06509,2.856 -17.39522,-0.3198 z m -60.4381,-5.4472 c -41.40504,-14.4733 -75.36914,-48.7288 -89.82634,-90.0649 -1.80029,-27.5294 10.51343,-53.9866 23.44628,-77.6517 8.71594,-14.9196 18.90701,-28.9909 30.13006,-42.1209 12.09549,36.7458 39.48535,66.3119 70.64621,88.2307 -11.4269,22.416 -24.60072,44.5853 -29.85277,69.619 -2.73231,17.783 -3.94386,37.0367 3.43009,53.9121 -2.49361,0.9877 -5.49928,-1.6676 -7.97353,-1.9243 z M 497,2701.4211 c -33.8763,-8.1902 -54.16741,-50.7837 -36.39966,-81.526 12.53129,-25.2815 44.31138,-38.2149 70.69677,-27.754 29.41276,9.7353 45.4948,45.3745 33.90229,73.9643 -9.97773,27.1892 -40.30663,42.4189 -68.1994,35.3157 z m 472,-5.4753 c -14.42657,-1.8738 -28.61023,-5.5954 -42.13491,-10.9476 4.1449,-6.7987 8.66141,-14.0242 16.85555,-8.5501 32.04994,9.4111 72.48036,8.6122 96.07196,-18.3593 4.1403,-8.6355 9.8895,-12.4539 8.1533,0.155 0.7056,17.7016 -18.0529,27.8032 -32.2325,33.6481 -15.0366,4.5619 -31.11978,5.7373 -46.7134,4.0539 z m -60.73953,-19.566 c -11.32084,-3.3529 1.60657,-19.0679 8.53368,-10.1718 12.2983,0.4346 2.55485,13.7683 -3.83326,12.6821 l -2.19882,-1.1309 -2.5016,-1.3794 z m -156.52701,-8.3304 c 2.47655,-22.5179 17.06988,-41.6291 28.60483,-60.4761 8.97142,-10.78 19.71421,-31.707 30.60851,-35.0498 -23.1878,27.6478 -44.95028,57.8044 -56.15523,92.663 -1.27061,3.3985 -2.91864,10.4689 -3.05811,2.8629 l 0,0 z m 218.75184,1.7855 c -9.3773,-1.7921 -37.00574,-2.1482 -18.68589,-14.082 23.45049,-23.6248 51.22559,-45.8587 84.55319,-52.4478 8.4855,13.8785 4.9456,33.7656 -5.0421,46.2983 -14.1632,18.2667 -39.12931,22.1707 -60.8252,20.2315 z m -89.50382,-10.9118 c -26.8043,-20.4399 -49.97134,-48.2914 -57.79534,-81.7112 11.43867,-15.2141 10.71664,14.2749 18.63223,21.0944 13.58137,23.8104 34.02597,42.8811 56.66474,57.9731 -3.80997,12.0264 -9.00787,10.6498 -17.50163,2.6437 z m 43.26852,-1.9073 c -14.66402,-7.8833 14.25623,-21.4327 19.15577,-30.3656 23.36902,-21.0752 50.76152,-38.9581 81.58593,-46.6502 18.5924,16.8573 -16.0542,15.1202 -25.31737,24.3108 -26.41458,13.7948 -48.00517,34.6671 -68.76887,55.6433 -2.25881,-0.8861 -4.44759,-1.9357 -6.65546,-2.9383 z M 397,2655.3176 c -51.14577,-9.1077 -95.49912,-46.9287 -112.85707,-95.8625 -6.8395,-13.8972 14.77228,8.4188 21.70257,5.2496 7.7149,-0.056 13.32052,3.0441 16.38512,10.1962 21.73484,31.7458 49.10393,60.2798 82.06729,80.4332 6.05244,4.051 -6.68193,-0.8365 -7.29791,-0.017 z m 34.42021,-0.701 C 388.80936,2638.7058 356.04542,2603.9205 331,2567.0546 c 32.28103,-5.7478 62.89235,-21.721 85.53271,-45.6848 9.09122,-5.4113 17.07746,-23.2782 24.24227,-24.9688 25.24944,28.6938 54.40712,58.3924 93.29746,66.4134 10.059,5.6625 37.03837,-9.7863 24.09158,9.1848 -4.14235,6.2744 -6.11282,21.3113 -15.53488,12.3742 -34.21813,-18.4235 -81.36589,-1.0302 -94.81261,35.5959 -10.57875,9.2096 4.85158,44.1901 -16.39632,34.6473 l 0,0 z m 464.5331,-14.2674 c -25.43482,-19.5488 -49.79727,-45.683 -55.35852,-78.3194 10.54678,-13.0285 25.91744,-21.9837 40.20727,-30.7261 20.70074,-10.7322 45.49189,-23.3581 68.82044,-12.9722 26.74921,10.1796 52.0892,27.2075 68.233,51.124 -43.78672,13.1557 -80.01102,43.174 -110.19898,76.5605 -3.53399,2.0597 -8.36987,-4.2733 -11.70321,-5.6668 z M 755,2624.6802 c 8.15296,-35.3171 29.61346,-67.3593 59.27536,-88.2363 -0.7506,15.6818 -12.93543,25.9964 -22.62232,37.0849 -14.03167,15.7035 -24.82915,34.1777 -36.65304,51.1514 z m 67,-65.4707 c 7.70514,-15.782 6.77001,3.6441 0,0 z M 319.60648,2548.75 c -17.63469,-32.6565 -32.20468,-69.839 -25.7921,-107.5642 10.5364,-26.5387 33.48309,-46.6252 57.50698,-61.1085 11.50782,-4.4351 31.56959,-18.1418 40.45799,-12.0547 -2.9193,37.0968 13.74678,72.7247 32.02949,103.9813 2.22842,6.0602 12.46187,12.1699 5.02751,18.0662 -24.20448,32.8031 -59.81373,60.9296 -101.53741,64.9125 -4.33623,0.9919 -5.99254,-3.265 -7.69246,-6.2326 z m -19.94344,1.8026 c -16.05063,-6.1157 -26.90094,-22.2492 -23.9498,-39.63 0.0917,-13.4482 1.6601,-26.8598 4.70427,-39.9566 4.1637,28.6349 14.23269,55.9428 27.58249,81.5158 -2.30684,1.6658 -6.03451,-1.8455 -8.33696,-1.9292 z m 229.94481,-0.659 c -33.78708,-10.8905 -61.23195,-36.5829 -81.96859,-64.4838 8.16806,-20.7957 19.98134,-40.8959 21.47781,-63.8157 2.24397,-19.3413 -0.45887,-39.9981 -11.27974,-56.5474 44.93409,10.9381 84.20964,43.3265 101.93511,86.2828 13.0668,26.816 13.74769,58.0237 9.46227,86.9864 -4.80154,15.7963 -26.83997,14.9386 -39.62686,11.5777 z m 310.40034,-6.5846 c 11.92832,-13.4245 28.42344,-22.694 44.25014,-31.0918 7.60404,-3.9243 19.93544,-3.7093 5.6364,1.4978 -17.8348,7.9841 -33.93072,19.7758 -49.67442,30.6936 l -0.21212,-1.0996 0,0 z m -12.04398,-8.1446 c 4.66702,-5.7546 -2.52766,6.2025 0,0 z m -237.7569,-24.1868 c -3.1041,-10.4961 7.71668,-10.2556 15.09008,-12.4075 29.31028,-7.3208 59.11915,-13.61 89.33054,-15.2755 -25.54101,23.4131 -60.88061,35.6536 -95.45308,35.6291 -8.47406,0.6033 -10.60309,1.9707 -8.96754,-7.9461 z m -1.74504,-23.644 c 0.21942,-8.7808 -11.40217,-26.1769 4.51149,-21.8336 39.61292,3.644 79.28956,-21.2712 93.73604,-58.22 17.52332,-40.5639 2.34566,-92.0175 -35.31421,-115.6217 -16.8287,-11.8455 -37.43922,-16.8415 -57.83921,-15.0432 -44.85774,0.049 -84.93624,39.0343 -89.26913,83.248 -0.4237,8.1578 -11.29834,-3.087 -16.29161,-3.3352 -18.65293,-3.2363 -17.22786,-25.6518 -24.77591,-39.1527 0.47683,-16.4255 14.22184,-30.6158 23.79426,-43.5591 4.02541,-5.3495 12.10262,-2.2876 17.98601,-3.78 50.99795,-3.894 101.22632,-16.2948 148.68724,-35.1611 16.8875,2.6578 30.94206,15.3637 44.29865,25.5927 2.41222,10.731 1.2478,23.2352 3.34833,34.4452 5.85093,45.2021 16.13415,90.3765 34.92996,132.0562 -7.24394,15.7161 -16.01384,30.9582 -27.76418,43.7546 -40.21887,1.4564 -79.85027,9.4868 -118.59881,19.9431 l -0.58748,-0.4508 -0.85144,-2.8824 0,0 z M 433.78132,2466 c -18.49753,-30.3107 -34.06232,-65.4054 -29.60819,-101.7337 7.78151,-5.0346 19.83287,-1.7974 29.48024,-2.7386 9.95494,-1.4393 14.36196,11.4787 19.05512,18.2202 12.39013,31.4486 1.74706,66.1965 -13.38098,94.7521 -1.84873,-2.8333 -3.69746,-5.6667 -5.54619,-8.5 z M 593,2454.4455 c -18.91542,2.7171 -18.1411,-20.3968 -27.54933,-31.2625 -12.83134,-20.8338 -30.15946,-39.0248 -50.66296,-52.4251 0.33413,-36.3058 25.86781,-70.582 61.05791,-80.2017 42.52317,-13.3269 92.40271,14.0566 103.33863,57.4369 12.18358,38.8916 -9.27043,83.5622 -46.48872,99.4228 -12.36637,5.3611 -26.24733,8.008 -39.69553,7.0296 z m 145.22578,-52.6426 c -14.39637,-41.0414 -23.93485,-83.9142 -27.32344,-127.3029 32.29333,35.9492 43.71542,88.7847 30.84702,135.084 -1.72786,-2.3134 -2.43099,-5.1622 -3.52358,-7.7811 z m -281.02653,-54.7893 c -9.3024,-1.8285 0.77317,-23.7265 2.89073,-6.0171 1.42415,4.1841 4.36285,9.1351 -2.89073,6.0171 z M 504.5,2256.5596 c 31.20326,-25.8116 72.88463,-37.7533 113.03909,-32.4058 9.35303,0.1389 28.40026,3.7588 9.78157,8.1825 -40.49832,14.5121 -83.06288,22.7385 -125.82066,26.8134 1,-0.8634 2,-1.7267 3,-2.5901 z m 2335.9586,929.2584 c 210.0745,-158.81 384.2608,-364.8162 504.9663,-598.9327 42.1766,-81.1156 76.9089,-165.9096 106.4373,-252.3853 -287.5032,-93.1692 -574.8739,-186.7502 -862.3126,-280.1196 -45.9777,134.2601 -125.3191,256.953 -229.8613,353.0391 -21.2516,20.5922 -45.1826,38.1275 -67.3089,57.6673 6.0024,13.5969 18.5202,26.5227 27.1735,39.829 167.9051,231.1539 335.7532,462.3513 504.2357,693.0842 5.7565,-3.7719 11.1482,-8.0792 16.67,-12.182 z M 3063.5,2668.3378 c -52.9982,-1.9875 -102.0645,-24.486 -149.5463,-46.0839 -43.3494,-20.0187 -86.9159,-39.6587 -130.9671,-58.0732 -15.9005,-5.4933 -35.5491,-5.683 -50.4866,2.3173 -8.8947,9.2092 -29.0655,25.4602 -26.775,1.3226 -2.4028,-16.0858 -7.6748,-32.9799 -7.8876,-48.6193 16.6028,-2.4265 30.8907,12.3209 47.3939,4.3361 26.3043,-5.8243 41.6349,-30.054 60.8797,-46.6598 46.5122,-45.1448 90.4566,-93.1699 140.389,-134.6244 51.0997,-37.5909 114.6135,-54.7047 177.036,-60.5796 56.226,-3.3085 115.4156,5.1254 162.8021,37.5419 50.9027,33.7128 77.2192,96.7107 72.9422,156.7084 -1.6334,59.3654 -41.9338,110.9593 -90.685,141.5067 -60.4613,38.6308 -134.1626,52.8494 -205.0953,50.9072 z m 48.5,-20.3794 c 57.987,-6.1177 118.0535,-19.9532 165.1287,-56.1346 33.6676,-25.6553 53.357,-67.0469 54.0221,-109.1633 0.9591,-49.5047 -12.1101,-102.2452 -47.0966,-138.8206 -37.7501,-39.316 -96.0152,-48.6364 -148.1617,-44.7086 -68.7892,5.9375 -140.2234,24.5241 -193.2038,71.0023 -40.4142,34.7091 -61.9915,90.5072 -52.3128,143.2745 8.0586,49.8588 41.8025,94.5584 88.0866,115.0671 37.8061,17.9291 80.3492,22.2549 121.7019,20.051 3.9475,-0.1245 7.8987,-0.2378 11.8356,-0.5678 z m -219.3683,-59.4411 c -8.1311,-17.4184 -19.7673,-33.5358 -24.3074,-52.6176 -8.5439,-28.5369 -7.4282,-59.0162 -0.4973,-87.7545 -12.6172,2.612 -23.4504,19.93 -34.4355,29.1503 -14.4935,15.5999 -32.504,34.3791 -28.4283,57.5251 9.534,22.1072 34.062,31.7692 54.2045,41.9763 10.5303,3.2123 23.3394,12.9237 33.464,11.7204 z M 2747.5,2547.4903 c 6.3008,-1.1433 36.5667,-4.7459 24.1578,-13.0471 -14.2968,-0.4202 -28.1957,3.7305 -42.1578,6.2933 -1.7644,15.0076 8.6827,7.0133 18,6.7538 z m -308.2571,90.4038 c -9.1663,-14.1353 -7.9954,-34.3339 -12.5965,-50.9543 -8.0729,-17.0328 -0.2958,-32.7753 19.8117,-26.6811 21.5539,-4.6217 14.3822,24.1662 20.1054,37.2438 2.3704,15.0876 11.6945,34.464 -10.1885,36.6396 -5.4377,1.874 -11.1948,5.0715 -17.1321,3.752 z m 38.4702,-12.6034 c -4.5038,-21.4719 -8.3872,-43.1095 -11.5128,-64.8243 73.5813,-14.2264 147.3239,-27.6567 221.097,-40.8541 9.8152,9.6506 7.7439,34.5298 12.8657,50.1592 11.2981,21.567 -19.0458,16.0986 -31.2966,20.9131 -63.4305,11.7559 -126.9058,23.3527 -190.3425,35.0197 l -0.8108,-0.4136 0,0 z M 2709.75,2468.2715 c -5.9316,-5.7925 3.3253,-26.6046 -6.8581,-36.4856 -3.8671,-15.2748 -26.4742,-21.0318 -30.5734,-29.1589 8.314,-21.2892 32.0587,-33.6429 54.2999,-29.3419 -6.8937,25.3348 9.7282,56.0379 35.8206,61.6161 -5.9596,22.1092 -30.2253,37.0607 -52.689,33.3703 z m -14.7523,-4.934 c -18.22,-9.7738 -29.7243,-31.1727 -25.1635,-51.7504 15.0753,-0.6 27.1156,20.1052 31.6874,34.1091 1.6882,6.2591 7.1289,26.8328 -6.5239,17.6413 z m 61.3918,-34.9333 c -16.6306,-11.2881 -28.0053,-31.5616 -25.948,-51.8421 14.4303,-1.2656 27.7364,16.3244 32.4474,29.7635 1.787,5.8069 6.5771,32.0352 -6.4994,22.0786 z M 551.5,2168.9783 c 137.77729,-44.7952 275.59315,-89.4729 413.30768,-134.4605 -24.27402,-81.5911 -38.21597,-166.4618 -37.79007,-251.7108 -0.67123,-86.2941 12.67218,-172.3903 37.52578,-254.9607 -12.67404,-7.4227 -31.84493,-10.9407 -47.14554,-16.7755 -270.67562,-87.7553 -541.02792,-176.5254 -812.16685,-262.8401 -9.893472,11.0154 -11.660868,34.9151 -17.971246,50.8525 -47.800871,167.7756 -69.840176,342.7071 -66.120716,517.0877 2.846884,168.9955 30.692967,337.5541 81.949512,498.6017 149.41746,-48.7601 298.94357,-97.1887 448.41145,-145.7943 z m 109.66884,-116.3957 c -20.05734,-8.1334 14.35455,-17.9849 17.3385,-29.4208 10.60072,-13.0372 23.17214,-33.2404 11.65441,-49.3533 -20.02941,-18.9102 -42.49256,-35.1466 -63.16175,-53.3749 -5.16833,-21.4801 -8.14401,-43.7832 -16.45896,-64.3308 -13.32036,-21.9942 -42.20264,-18.0996 -63.42845,-25.832 -18.73359,-9.2215 11.31293,-20.6274 21.73006,-20.9622 50.7623,-13.9653 101.55503,-27.8696 152.34954,-41.6876 -5.26446,12.9051 -20.11815,24.9183 -30.96323,35.666 -14.19774,11.4029 -28.58443,28.5135 -21.59505,47.9848 17.4741,59.3577 40.74728,116.8746 58.36609,176.1659 -5.88818,17.4384 -27.77626,22.3313 -44.04268,25.4651 -7.19522,0.7951 -14.69027,1.4932 -21.78848,-0.3202 z M 627.204,2036.8391 c -43.42521,-44.3165 -83.88885,-91.5886 -128.88343,-134.3775 -14.77597,-14.2634 -37.15101,-7.839 -53.57152,-0.3079 -11.31904,3.5335 -37.58133,13.8635 -40.58039,7.0859 45.17059,-48.5157 90.43473,-96.9483 136.0213,-145.0729 1.1138,13.3703 -2.7448,28.1036 -6.1477,41.4848 -5.74212,16.5748 -12.64464,37.4711 0.24836,52.5623 46.24725,43.8877 98.419,81.0383 145.91197,123.5262 5.9097,17.8906 -11.03191,33.8158 -23.03945,45.2228 -7.91238,6.4725 -19.29102,15.9291 -29.95914,9.8763 z M 356,1911.9327 c -83.72068,-10.5689 -154.27678,-78.5912 -173.44691,-159.9393 -12.30345,-49.7082 -5.89139,-106.8228 28.21584,-146.8271 36.90037,-45.0897 100.22222,-60.2882 155.87466,-49.5532 81.33497,13.5693 152.75494,78.1066 169.93701,159.4242 8.48155,19.1882 -16.01938,28.6804 -24.61664,42.4504 -48.43638,51.3132 -95.90036,103.5796 -145.54397,153.7313 -2.43472,3.2961 -7.15273,0.3682 -10.41999,0.7137 z m 52.20923,-212.2468 c 20.48173,-8.5807 24.71875,-39.5839 6.35033,-52.6796 -17.63409,-15.1666 -48.41053,-2.5223 -49.75471,20.8554 -3.7409,23.4386 22.54051,41.4524 43.40438,31.8242 z m 143.14321,86.046 c 8.66988,-57.5716 -8.77731,-118.2056 -46.34893,-162.6722 -20.39475,-24.992 -46.14924,-45.272 -74.8457,-59.9271 -5.53337,-15.0132 13.61834,-34.4397 21.30533,-48.7884 31.74509,-45.4658 90.48569,-71.0653 145.21253,-59.2621 96.12995,19.9848 165.27992,118.9337 157.81729,215.6921 -0.52991,22.7985 -6.61355,44.9731 -14.99238,66.0511 -62.77965,16.8848 -125.47003,34.4866 -188.3124,50.8357 l 0.16426,-1.9291 z m 2914.20416,504.6312 c 91.4587,-302.4077 99.2372,-629.4974 22.9672,-936.0424 -9.0602,-35.8568 -18.6588,-71.6528 -30.5047,-106.6901 -198.7006,62.8072 -396.6757,127.9185 -594.9294,192.1292 -88.5853,29.1793 -177.6158,57.0768 -265.7207,87.6742 1.6739,15.4649 9.4432,33.4257 12.5555,50.0597 36.1614,148.3836 31.6666,306.323 -12.5488,452.4911 2.8659,12.3089 29.2227,11.5488 41.6044,18.539 266.873,86.5885 533.4427,174.1238 800.7215,259.4537 11.7932,5.3323 23.3103,8.3303 23.2405,-9.0315 0.8811,-2.858 1.7521,-5.7192 2.6145,-8.5829 z M 2988.287,1946.8425 c -15.2939,2.4092 -31.9532,-2.4476 -48.249,0.082 -15.6516,-1.8663 -32.9492,-0.629 -49.8457,0.073 -14.484,-2.5447 -29.569,0.9371 -43.6923,-0.9977 -15.9124,0.8184 -29.0689,0.3257 -44.8252,1.7078 -9.3546,-4.7524 -21.8143,4.0879 -30.9821,-3.394 -10.4868,7.0615 -18.8151,-5.8912 -29.4713,-2.0715 -8.7219,-7.4079 -20.496,-3.5236 -28.4231,-12.1015 -10.9043,1.5051 -15.9135,-9.7982 -27.0398,-10.3086 -10.7314,-10.2305 -26.1733,-14.8861 -33.9568,-29.7765 -8.3678,-15.2787 -0.2353,-38.3389 15.8993,-44.7973 25.3116,-4.5531 50.3131,6.6357 75.799,4.7192 17.9511,0.4213 40.0508,-0.8925 50.7598,-17.6383 17.7372,-9.5445 35.7696,-18.3328 55.1218,-23.5608 15.4924,-4.883 28.4361,-10.4916 35.072,-25.9017 10.8314,-15.6344 15.3515,-35.4652 28.4525,-49.401 17.0977,-10.3663 35.9957,5.3464 48.614,16.182 2.5776,10.2171 -2.5961,16.8671 11.3544,20.5819 15.8687,11.9927 32.1105,29.2418 54.0244,26.1709 16.4606,-6.7471 40.3235,1.4216 51.632,-13.6775 0.7933,-14.2302 11.9658,-28.3175 22.7296,-32.0127 -19.5679,-15.5647 -39.8024,-30.9123 -55.8232,-50.2372 -5.0317,-17.2776 14.5546,-31.2457 26.7043,-40.959 15.0184,-9.9702 29.452,-20.718 41.3694,-34.3919 19.5852,-20.6388 47.3979,-29.9053 68.9494,-47.942 20.624,-2.3354 14.5547,28.6573 8.7246,40.5863 6.4492,16.8577 26.1724,25.866 38.1867,39.3784 18.2808,14.7661 42.5415,5.6325 63.7823,7.3521 11.267,2.7342 8.5131,-17.7833 23.4013,-12.3528 15.3406,-0.1978 38.6695,-0.3136 41.2394,19.4114 0.012,19.413 -7.4207,38.8782 -4.3113,58.1716 -5.3084,18.4748 12.9205,31.6218 22.2658,45.263 8.5315,13.2102 18.5425,27.209 23.9046,42.2162 1.5979,21.312 21.2606,34.8724 38.129,44.8007 18.7362,13.9586 43.7684,17.9886 60.1292,35.1378 11.321,18.5936 -1.2885,47.1032 -23.4663,49.9606 -13.7882,-0.2688 -26.8354,1.9867 -40.9582,0.3231 -7.0419,-5.0755 -17.1116,1.111 -24.7626,-6.2176 -10.5205,2.6534 -17.6522,-7.1009 -28.9416,-6.071 -7.123,-7.6974 -20.7045,-4.8234 -26.1162,-15.8121 -13.2631,0.7008 -17.4813,-14.8174 -30.6555,-16.5967 -11.0468,-11.1114 -25.4936,-17.9895 -38.5138,-26.9023 -14.0784,-10.6281 -28.4929,-19.743 -43.0124,-29.576 -13.1905,-10.9972 -29.5248,-16.6222 -41.1715,-29.0138 -14.9861,-4.7936 -24.9495,-16.6459 -39.521,-22.2402 -5.5651,-1.543 -1.3632,-15.8625 -5.6854,-13.6928 -12.7292,11.0957 -26.6671,-13.8065 -39.1137,-18.89 -12.8151,-14.8757 -4.7059,5.4157 -1.713,12.5249 12.1532,24.257 23.9987,49.2096 26.6689,76.6068 5.6718,26.0935 24.748,51.1558 16.3632,78.9732 -13.0743,11.9564 -34.4803,8.8714 -51.1371,12.5067 -28.7746,2.5037 -57.752,5.6897 -86.5813,5.353 -3.6399,-8.8485 -4.5673,-11.4826 -10.4026,-2.2306 -3.7121,5.4023 -16.0448,2.7826 -20.9049,0.6823 z m 20.6867,-10.1901 c 6.497,-19.7001 25.9235,-22.8321 44.0451,-21.852 26.8706,-0.4671 53.5907,-4.268 79.0741,-12.9995 9.0757,2.085 25.017,-11.3359 12.1515,-12.677 -24.6034,11.49 -51.7424,15.6399 -78.7291,15.1641 -38.3986,0.9976 -77.038,0.5412 -114.871,8.2412 -34.176,4.7506 -67.997,14.4979 -102.796,12.1777 -42.1151,-1.4481 -84.5409,-2.502 -126.1371,-9.7007 -20.8894,-5.906 -40.0053,-16.5648 -58.8322,-27.1409 8.7535,15.1719 27.5987,20.5167 42.1114,28.7912 34.566,16.5948 72.9908,23.0465 111.1274,22.2682 63.7727,1.1105 127.5548,0.1831 191.3306,-0.1198 0.5084,-0.7175 1.0169,-1.435 1.5253,-2.1525 z m 464.5958,0.2828 c -5.0502,-6.1739 -32.3028,-3.7264 -45.3472,-8.5666 -30.0519,-7.1745 -55.7628,-25.5696 -82.4738,-40.3529 -30.5199,-18.7772 -62.7086,-35.9032 -87.6675,-62.1755 -32.7319,-30.9147 -64.1775,-63.7412 -102.581,-87.8163 -27.96,-19.5905 -58.4047,-38.2239 -75.933,-68.6238 -5.4583,-12.8592 -15.1787,6.5047 -2.5762,10.4018 16.7618,21.044 35.3984,40.6115 57.6908,55.8869 13.0259,10.6825 34.1975,20.1667 28.8009,40.7253 -2.6538,7.138 1.8743,10.7819 7.78,13.7556 59.9813,40.3226 118.9229,82.3312 180.783,119.7521 35.5953,19.312 76.4558,29.4335 116.9437,28.2018 l 2.4526,-0.4956 2.1277,-0.6928 0,0 z m 15.0911,-16.4543 c 11.6896,-4.7348 6.0177,-28.1566 -3.9039,-23.7785 -14.4076,10.2953 -33.9408,2.4921 -50.4309,5.9068 -8.2728,2.1716 -31.7731,11.2113 -10.3694,13.4832 19.5977,4.9583 39.5372,8.667 59.5436,11.4862 2.153,-2.0278 3.5789,-4.6422 5.1606,-7.0977 z M 2724.5339,1896.77 c -8.5884,-19.7355 -32.5629,-24.0718 -44.9076,-40.1029 0.2308,-12.7043 -21.4938,-5.141 -17.9526,4.9052 0.5311,5.4707 -1.5291,12.5011 0.5712,17.0271 21.515,10.4432 43.5976,20.4192 66.6165,26.8725 -0.9915,-3.1086 -2.7961,-5.8524 -4.3275,-8.7019 z m 213.5149,-0.7687 c 31.9047,-7.8528 64.3865,-13.4783 97.3334,-13.546 34.1276,-2.5544 70.6912,0.9276 101.4535,-16.9929 -0.1366,-23.8541 -20.5388,-45.3271 -43.5351,-49.3533 -30.0102,-4.4174 -56.1907,15.5636 -85.4274,16.8289 -21.8194,-3.2292 -35.0938,-23.6206 -50.0794,-37.8521 -11.2786,-16.7588 -32.7833,-13.4614 -50.1022,-12.0248 -8.9276,-1.0825 -33.9308,11.2593 -11.2685,9.9389 10.1538,-0.4926 31.1337,-13.7385 27.5953,7.5793 -10.2412,10.4175 -22.0111,-6.3909 -35.6114,-1.5793 -9.1767,3.6898 16.4602,18.1432 -0.6576,23.9177 -10.5146,2.8381 -18.7338,-22.0242 -26.6645,-3.1108 -5.9267,6.6822 6.684,22.0515 -10.1417,21.1764 -6.5258,-3.3519 -12.3916,-24.4212 -20.9404,-9.3343 -3.0142,8.1289 -0.053,27.2418 -15.5578,19.7736 -13.7817,-12.9067 16.364,-18.3192 11.7426,-28.0394 -13.6817,5.915 -36.0527,13.09 -25.3669,31.1801 -4.2766,13.0557 -19.1054,3.8874 -19.5707,-4.0454 -6.6712,3.9037 -31.0063,4.5227 -11.0987,9.3409 31.7615,8.6175 66.5006,6.108 96.5565,20.6503 16.1671,7.1244 25.3644,31.9569 45.3404,21.2058 8.6712,-1.8847 17.3373,-3.793 26.0006,-5.7136 z m 470.9806,-47.7513 c -6.7865,-8.2888 -9.4048,-14.5968 -18.6761,-6.1618 -17.1534,-3.722 -4.8608,-17.3867 1.9984,-22.7116 -1.3628,-8.831 -9.3355,-27.2762 -15.92,-27.0099 -0.4341,9.607 11.7002,29.127 -7.562,26.8764 -14.1421,-8.9551 5.3046,-19.5168 2.2109,-31.8316 -10.8652,-6.2569 -23.9274,13.8262 -28.4687,-4.5048 3.0813,-7.2541 13.8381,-17.6626 7.0058,-25.549 -8.6939,-3.4903 -26.5767,7.9378 -23.1137,-11.0035 4.7626,-4.4449 23.9765,-8.3539 8.8634,-14.755 -7.5985,-9.1084 -32.9632,-1.6915 -22.9735,-20.2707 15.4382,-11.8387 19.3013,24.161 34.6061,17.0698 -7.8693,-14.9949 -23.0193,-25.2036 -36.9714,-34.2478 -17.4707,-8.1901 -36.2435,3.5788 -54.1727,4.7519 -17.7293,4.0458 -38.8306,1.077 -48.3235,-16.3979 -15.728,-19.211 -30.0246,-43.9472 -55.5022,-50.9646 -20.4119,-3.9282 -42.434,2.9455 -55.4637,19.4562 17.4007,33.8362 52.1335,52.7648 81.0586,75.4173 37.0316,24.8855 64.2755,60.7608 96.5372,90.966 15.5184,0.4102 32.8649,-5.7102 48.9148,-1.0739 30.2945,9.4122 56.9328,27.7639 87.1661,37.2617 6.7823,2.0401 -0.3505,-4.226 -1.2138,-5.3172 z m -558.7263,-25.1751 c 5.5682,-3.3141 12.8181,-15.9387 0.1179,-8.319 -8.7768,2.7022 -20.0833,6.0594 -4.0109,9.0494 l 1.8122,-0.071 2.0808,-0.6591 0,0 z m 189.6843,-13.0065 c 27.6038,-8.4051 57.3923,-6.7742 84.2957,3.4227 -5.6558,-10.4511 -30.6438,-15.9085 -45.7186,-17.0485 -20.8689,-1.7874 -40.8046,6.8682 -61.5208,5.7965 -25.1126,-1.0979 -38.1857,-26.4939 -60.688,-33.2856 -17.7166,-4.7469 -36.7003,-0.6008 -51.1912,10.5134 17.1349,-2.5069 38.7402,-13.2332 53.2926,1.3852 15.1037,12.1384 27.5373,31.6929 48.228,33.9271 11.2521,0.07 22.3969,-2.1347 33.3023,-4.7108 z m -160.1712,-5.3163 c 1.9113,-7.4485 -12.4748,7.6662 -0.8057,2.2372 l 0.8057,-2.2372 z m 490.5462,-25.0021 c -4.6775,-6.905 -16.5189,-26.2404 -12.9574,-6.7971 -0.8306,5.3333 11.0336,10.2747 12.9574,6.7971 z m -22.7604,-31.9078 c -2.0886,-12.8843 -7.6835,4.9697 1.0594,1.7317 l -1.0594,-1.7312 0,-5e-4 z m -12.6094,-43.8568 c -6.44,-16.4937 -21.4258,-27.7538 -37.4998,-33.4845 -19.1111,-1.1032 -38.5355,3.6529 -57.299,-0.9206 -24.438,-9.9106 -38.35,-35.0343 -62.0915,-46.4036 -11.7636,-5.3031 -31.2666,-12.4069 -40.932,-8.4111 21.2063,6.763 42.5964,15.281 58.218,31.8197 15.6525,12.9057 26.9333,32.7931 47.0681,39.1581 20.5041,3.0884 40.3928,-6.145 60.6775,-5.0278 13.7507,3.4706 26.9297,24.4537 33.9253,27.4962 l -0.9086,-1.8959 -1.158,-2.3293 0,-0 z m -2291.5161,441.3752 c -0.642,-7.467 3.3216,-16.1723 -2.5332,-22.2378 -7.7531,-12.1816 -15.5062,-24.3632 -23.2593,-36.5448 1.7683,-32.8226 2.6491,-65.7176 5.3229,-98.4732 -6.2575,-0.1314 -13.8624,0.2747 -5.3392,-5.7535 9.0406,-9.6634 18.0813,-19.3267 27.1219,-28.9901 -5.4336,-7.8826 -12.5931,-14.9119 -16.1626,-23.8314 18.1018,-11.6333 37.9924,-20.8843 54.5445,-35.0088 25.5602,-19.7201 48.9864,-42.3648 66.6655,-69.5509 36.4469,-51.4144 67.0355,-106.7188 97.9753,-161.4977 8.8233,-27.9821 18.9208,-55.6043 26.4854,-83.9519 0.4785,-13.0685 25.9817,16.9695 27.012,-4.4755 16.4089,-32.4854 34.6033,-64.1725 49.2053,-97.5101 0.8079,-6.885 2.6416,-31.0558 8.9525,-13.0349 5.4202,16.6246 24.1117,-10.1295 35.1361,-12.5716 29.3094,-18.7598 58.5563,-37.6167 87.8323,-56.4284 2.1358,-9.0676 2.7879,-18.651 6.2244,-27.2886 7.4197,4.2014 6.2861,17.5491 9.5587,25.7919 3.3755,11.3984 11.5344,20.8495 16.8997,31.4378 25.1271,42.8891 50.2542,85.7782 75.3813,128.6673 0.8705,-6.1062 0.2865,-14.0425 8.7578,-10.5849 15.0251,-3.5252 10.3456,12.6994 11.9523,22.2997 2.7345,1.9228 9.4528,-5.9556 13.9781,-5.8405 5.6039,1.0885 11.2078,2.177 16.8118,3.2654 0,24.2275 0,48.4549 0,72.6824 17.1666,30.9798 34.3333,61.9595 51.5,92.9393 0.1709,-49.4662 0.3417,-98.9325 0.5126,-148.3987 15.1625,-15.0502 30.3249,-30.1004 45.4874,-45.1506 11.8333,2.34 23.6667,4.68 35.5,7.0201 0,85.765 0,171.5301 0,257.2951 26.2502,18.8748 53.8697,35.9683 83.5,49.0317 1.7303,8.1959 15.0127,22.3881 0.6203,23.3086 -12.2004,-0.1889 -4.6891,12.4981 -6.1814,20.1931 1.8595,6.3386 -3.1666,16.1693 2.5289,20.4839 10.7616,7.6156 21.5232,15.2313 32.2847,22.847 2.0545,8.4339 -4.2292,24.9555 7.6445,25.1484 13.694,-0.7004 44.2364,14.8897 37.6043,-10.6556 0.7538,-5.5916 -3.1065,-15.7973 6.0434,-12.9928 7.3189,0 14.6377,0 21.9566,0 0.1915,10.6691 -0.5365,21.4226 0.75,32.0202 45.7166,5.0564 91.3507,10.9141 137.1221,15.441 10.4712,-29.5554 22.9524,-58.579 30.9864,-88.8965 2.0374,-7.9657 -1.9692,-22.7889 3.4576,-27.5647 7.4895,-1.8239 10.0948,1.6628 9.128,9.0334 1.1985,9.2162 -0.2561,19.2527 6.0656,26.885 8.3366,14.6521 16.5865,29.3542 25.0468,43.9353 12.0869,-4.4963 41.4364,-14.412 37.535,8.4053 0.1597,11.0724 0.2724,22.1454 0.4085,33.2181 2.8826,-6.7787 6.7778,-23.3694 9.6957,-7.2734 11.0713,30.9902 21.3279,62.2624 31.9254,93.4161 18.6263,-2.3549 37.2526,-4.7097 55.8789,-7.0645 0,-7.7584 0,-15.5167 0,-23.2751 13.8837,-4.1319 28.075,-7.3985 41.5934,-12.6318 10.4659,-62.341 17.4955,-125.2251 27.4589,-187.6484 34.8449,88.7457 68.8852,177.9133 103.4477,266.8162 15.3076,12.4304 30.6152,24.8608 45.9228,37.2913 38.5839,-76.9423 64.2211,-160.3609 77.0532,-245.4218 18.787,-132.3141 7.5813,-269.2852 -36.7176,-395.6256 -44.6747,-129.344 -122.1579,-246.9524 -222.8091,-339.611 -128.4282,-119.2107 -295.431,-196.21413 -469.7056,-215.40511 -51.1623,-6.20367 -102.898,-5.07808 -154.293,-3.30931 -199.9665,13.62556 -393.6544,102.90242 -533.4477,246.61092 -144.0801,144.4115 -231.5384,344.0702 -238.74498,548.0197 -0.93671,53.8359 -0.80703,107.924 8.20816,161.182 13.806,89.4252 40.99854,177.3774 84.05432,257.1312 3.2482,0.5842 1.3677,-13.312 2.4547,-17.3179 z M 2437,1815.6993 c -0.7819,-6.5625 -0.5288,-12.5387 6.9117,-14.4429 8.9526,-6.3841 34.4502,-14.9693 14.0204,-23.2804 -5.48,-6.7261 -21.0169,-7.131 -19.9321,-17.2031 1.0591,-4.1516 -2.2151,-15.8349 1.7416,-14.9505 14.6569,8.2754 27.9953,18.6062 41.7849,28.1776 12.779,-5.2473 31.3116,-25.613 40.3061,-22.8422 -1.6805,6.71 4.1684,17.847 -4.1381,21.0261 -7.5329,4.7442 -15.0658,9.4885 -22.5987,14.2327 8.9681,5.9606 17.9362,11.9212 26.9043,17.8818 -0.442,8.9112 3.0481,28.4487 -9.5254,14.736 -14.3397,-7.452 -29.472,-31.1737 -44.0986,-11.8151 -7.7812,2.1723 -36.4963,32.5133 -31.3761,8.48 z m -1329,-81.3248 c -30.453,-16.6328 -61.3066,-32.8192 -89.9793,-52.4247 -1.539,-5.4989 -4.0055,-22.0192 6.0132,-22.313 36.4894,-10.145 73.2565,-19.9093 110.5735,-26.3627 3.0045,17.376 -7.2517,26.4762 -23.7111,26.041 -13.2683,6.504 -8.2552,32.2794 -11.3562,46.3823 14.2818,7.8214 30.5627,14.2861 20.3227,33.3436 -2.0935,2.4244 -8.7771,-3.9498 -11.8628,-4.6665 z m -23.2078,-53.315 c 2.5953,-10.3849 4.0625,-21.8915 -9.9498,-14.7452 -8.748,3.1381 -31.5762,4.6365 -33.5942,9.3379 13.1811,7.7094 26.2898,15.7259 40.2388,21.9488 1.9202,-5.2714 2.337,-11.0393 3.3052,-16.5415 z m 1351.3056,40.2693 c -5.2551,-17.8088 -12.1036,-41.9966 4.8006,-55.8878 15.4088,-10.2729 35.1252,-8.6423 52.6468,-12.3727 10.8881,-2.5302 22.8717,-4.0762 19.9126,11.324 -1.6617,14.0423 -28.3035,6.7642 -40.419,11.9028 -19.2565,-4.477 -33.9214,21.5805 -19.2762,31.9585 21.391,-1.5952 42.5645,-5.403 63.9612,-6.8631 4.0197,11.805 3.687,23.3862 -11.5084,21.0821 -22.3488,3.0498 -44.7883,5.4308 -67.1082,8.6851 -1.0031,-3.2763 -2.0063,-6.5526 -3.0094,-9.8289 z m -14.0018,-89.8176 c -9.1891,-15.9974 -14.444,-37.4953 -4.7763,-54.3305 17.2128,-25.002 62.8793,-29.4843 77.854,0.2778 10.09,17.3241 3.1789,41.6735 -15.8495,49.3778 -10.7303,7.1787 -24.6582,8.6648 -24.2914,-8.1219 -3.6479,-12.9148 -7.0921,-25.886 -10.6333,-38.8303 -15.1199,6.1798 -17.3444,24.2394 -10.151,37.5504 11.4681,10.2385 1.6468,20.5064 -9.612,17.9531 l -1.1975,-1.7452 -1.343,-2.1312 0,0 z m 50.7037,-22.9219 c 23.1207,-7.9117 -1.3686,-42.9046 -12.7109,-29.086 4.025,7.1517 3.205,31.7547 12.7109,29.086 z m -1374.6549,-1.3888 c -12.4517,-4.2335 -24.9034,-8.467 -37.3551,-12.7005 1.6879,-19.0626 4.2396,-41.5433 20.926,-53.6063 -2.06,-17.5978 0.5701,-40.4294 19.551,-47.4823 18.7883,-4.4497 36.7651,6.5106 54.4977,11.2727 10.776,3.2894 25.2794,5.7022 14.9057,19.5461 -7.169,12.1989 -27.8311,-6.6005 -40.5259,-6.9209 -13.7765,-7.7774 -35.2284,-5.3476 -32.9612,14.8636 6.5741,12.4227 29.8038,9.6117 42.4061,17.3082 13.1213,2.6578 25.2773,8.1674 14.6921,22.7326 -13.7274,3.5391 -33.4205,-10.6901 -49.8282,-12.7644 -14.303,-7.193 -25.4034,9.3798 -23.2401,20.5235 20.9406,7.3043 42.129,13.9549 62.7871,22.0275 -1.2201,13.77 -9.1403,21.6391 -21.8063,13.2209 -8.0349,-2.6172 -16.0477,-5.3021 -24.0489,-8.0207 z m 1293.3301,-74.0702 c -17.6196,-16.1998 6.7126,-29.5312 16.8176,-41.4696 13.1216,-12.061 25.3092,-26.0337 40.6744,-35.0632 2.8936,8.6587 14.3906,20.3437 0.043,24.7616 -13.534,10.9144 -26.5748,22.4182 -39.4101,34.1409 20.8816,1.2991 41.704,-3.2513 62.4443,-3.8435 5.0944,8.6113 12.7258,22.6486 -3.666,19.6796 -25.5359,1.446 -51.3743,3.5929 -76.9036,1.7942 z M 1149.5,1472.4133 c -12.3097,-10.1642 -48.6268,-12.8199 -30.244,-33.6917 16.9131,-0.9318 38.1727,17.6373 56.5776,24.2686 10.5444,5.2872 27.346,9.7965 14.0594,22.8613 -6.0488,11.2279 -30.4974,-11.8307 -40.393,-13.4382 z m 1198.3493,-24.6581 c -11.1235,-16.6477 22.307,-19.3037 30.8632,-29.0908 15.8181,-6.6984 35.5442,-29.3647 46.9328,-5.7039 8.7609,10.5042 25.2861,35.2531 -0.1818,35.0395 -4.5971,-13.1476 -13.4954,-32.7286 -28.397,-16.4138 -15.0115,6.4614 -30.4924,20.8301 -45.2939,22.389 -1.4973,-1.9498 -2.7091,-4.0904 -3.9233,-6.22 z m -1258.5507,-3.3793 c -18.8281,-9.1311 6.4628,-36.0565 16.3865,-16.4158 5.2647,9.5579 -6.534,22.6016 -16.3865,16.4158 z m 92.0892,-4.7522 c -22.9378,-6.9447 -41.6859,-32.947 -31.4935,-56.7929 4.0989,-8.0157 12.7584,-23.1113 20.6365,-23.78 2.2364,4.3369 13.4301,8.7693 8.7602,13.0325 -11.4417,8.382 -19.1663,26.2836 -7.057,37.5574 11.6833,15.2165 38.6939,17.448 45.4004,-3.6497 -0.6953,-15.1038 15.7879,-14.1241 19.8017,-3.5835 -5.2895,20.2804 -22.4623,42.7945 -45.898,39.4131 -3.4546,-0.3127 -6.8908,-0.9922 -10.1503,-2.1969 z m 1146.0086,-27.4515 c -16.2623,-13.0255 -31.2555,-34.8434 -22.6277,-56.2655 10.2421,-20.9078 36.1425,-36.8913 59.2794,-28.163 20.068,7.9027 32.157,33.9805 19.3464,52.9091 -8.5705,13.96 -25.4699,26.7399 -32.3244,4.7864 -7.1846,-9.8366 -14.3801,-19.6652 -21.5701,-29.4977 -14.3292,10.8872 -6.5884,30.6641 5.3284,40.1319 9.7527,4.8732 9.8075,9.6287 1.1853,15.3888 -2.748,3.5316 -5.2739,4.5768 -8.6173,0.71 z m 41.8315,-46.0246 c 10.6609,-16.3546 -23.2379,-31.1167 -25.3751,-16.0744 6.3569,7.1765 12.3646,19.8261 19.0874,24.4073 2.6997,-2.2522 4.8292,-5.1372 6.2877,-8.3329 z m -1136.8649,15.9299 c -15.508,-5.9634 -21.4489,-25.3396 -12.1969,-39.0795 4.4613,-9.1517 26.1697,-24.687 2.7656,-24.9359 -17.4744,0.8617 -19.6344,39.5966 -36.3366,16.2118 6.4462,-16.3789 19.1302,-35.1088 38.3302,-36.5406 18.9355,2.1848 31.5511,18.8457 46.4549,29.1905 16.1198,6.8837 15.3927,19.2575 3.9936,30.6181 -8.9429,13.7543 -24.4288,32.5768 -43.0108,24.5356 z m 18.3976,-20.3275 c 11.4447,-7.5106 15.5759,-19.9944 0.385,-25.9574 -17.7947,-6.8728 -25.252,38.5918 -0.385,25.9574 l 0,0 z m 1018.3163,-22.8774 c -6.4279,-4.6797 -7.1406,-9.1864 0.05,-13.4538 11.9422,-12.5211 26.3498,-23.3795 35.2366,-38.2394 3.7496,-15.5158 -18.5274,-31.1716 -26.9493,-12.2827 -12.0865,11.8903 -24.2243,23.7283 -36.3891,35.5385 -8.1227,-8.0394 -18.4996,-17.067 -3.1196,-24.6938 25.2998,-25.0574 50.9299,-49.778 76.4214,-74.6397 3.835,4.7821 20.2382,8.8422 13.3289,14.6767 -8.57,8.8033 -17.6606,17.1509 -25.608,26.5243 16.5599,8.8651 30.1019,30.1594 19.0186,48.2099 -13.9169,15.988 -28.7456,31.3397 -44.5353,45.4777 -2.8683,-1.9451 -5.0879,-4.6333 -7.4545,-7.1177 z m -973.8812,-25.3575 c -26.644,-23.999 -52.5544,-48.9789 -77.1957,-75.021 4.5438,-3.4951 9.1411,-22.8692 15.5398,-12.4051 23.584,22.8611 45.7466,47.3938 70.8892,68.4909 9.173,-7.2003 21.5593,2.57 20.2864,10.9419 -8.0375,6.4126 -19.1092,14.6743 -29.5197,7.9933 z m 913.5291,-35.9293 c -23.9258,-9.1476 -48.7011,-31.0681 -44.3676,-59.2288 4.9748,-31.2972 34.2153,-62.2432 67.9083,-56.6749 20.4334,3.7036 37.5529,19.3643 46.7251,37.4212 -8.7639,9.7764 -18.6801,11.9764 -23.4464,-2.3052 -11.2876,-16.3951 -36.8682,-21.4867 -51.2502,-6.2319 -14.2472,12.7162 -27.2364,36.8433 -12.2032,53.6744 8.272,10.0309 20.3169,15.8136 32.6648,19.0771 -3.1125,7.5872 -3.9316,22.2716 -16.0308,14.2681 z m -878.2248,0.015 c -26.1462,-8.8872 -45.3526,-43.5098 -27.8302,-68.2127 11.0379,-17.0619 36.7283,-23.0286 52.162,-8.2039 12.8779,6.9582 17.7544,20.5606 1.96,27.3971 -9.7327,7.8799 -19.414,15.823 -29.1196,23.7362 10.8493,13.5873 30.1512,5.1519 38.8624,-6.5731 4.956,-9.2064 9.8253,-12.1453 16.2837,-3.1584 7.9091,12.0131 -14.4536,23.7874 -23.0512,31.1961 -8.7803,4.7732 -19.5616,6.5913 -29.2671,3.8187 z m 1.5157,-48.2657 c 3.0816,-4.0965 13.3996,-7.7201 11.6446,-12.1326 -10.0978,-13.8077 -33.2317,-1.9152 -29.1882,14.06 1.8182,17.5223 10.2575,1.8475 17.5436,-1.9274 z m 108.1431,-18.0855 c -16.2792,-31.9003 -33.8926,-63.1824 -48.7994,-95.7443 15.6567,-12.1182 33.9574,-23.1676 54.0029,-25.4082 27.5626,-4.6361 47.1253,33.2535 28.3484,53.5354 -1.2354,4.9275 12.4927,6.6482 16.2149,10.6651 10.3207,6.8429 41.4625,18.6534 14.881,25.7992 -14.8292,5.7305 -27.3765,-13.042 -41.7225,-17.0187 -6.6043,-6.3461 -13.4312,-2.1217 -20.0064,2.0919 -2.6897,8.3367 8.4687,19.7033 12.0059,29.2868 4.0127,5.8345 6.5778,11.2158 -2.3261,13.0071 -3.6562,0.6739 -9.9928,8.1514 -12.5987,3.7857 z m -0.305,-63.7744 c 21.8208,-2.9402 28.0661,-39.0496 2.0124,-38.1029 -6.637,3.0028 -28.9393,5.4769 -23.2143,15.2346 4.6687,8.8202 9.0187,17.8256 14.1406,26.3927 2.4216,-1.0351 4.725,-2.3162 7.0613,-3.5244 z m 641.3475,47.6045 c -19.6303,-5.1584 -41.1246,-21.1812 -38.3172,-43.8229 1.6013,-23.3737 20.9882,-48.9558 46.5534,-45.6669 22.1154,-0.1891 39.9336,23.4608 33.0143,44.7916 -2.1649,14.8673 -10.8783,23.3252 -23.9056,12.2787 -10.7186,-2.2826 -39.7076,-27.5732 -35.028,-2.8616 3.7077,16.3406 24.591,17.9612 36.0289,23.0901 -2.2966,12.1989 -5.1842,17.0796 -18.3458,12.191 z m 23.3894,-53.8721 c 3.0995,-15.6627 -19.1584,-26.1257 -29.2217,-13.3808 -9.0333,8.5982 20.9901,17.8348 28.3535,17.5755 l 0.4753,-1.7433 0.3929,-2.4514 z m -559.8562,19.7331 c -22.4947,-5.5788 -25.4868,-31.2815 -32.9874,-49.4169 -5.25,-12.5957 -12.5082,-27.1995 6.7081,-27.8736 8.5908,-4.5387 6.5402,12.6034 10.8106,16.8475 7.4847,14.0659 7.4365,43.4953 28.8362,41.7589 25.9792,-1.4109 5.8061,-26.2329 3.3284,-40.7028 -3.855,-13.7051 -17.7385,-33.5733 5.8257,-34.7729 10.1069,7.1855 11.7655,29.059 18.209,42.4794 3.8234,11.0798 7.6467,22.1595 11.4701,33.2393 -14.055,9.95 -30.727,18.2557 -48.2231,18.9474 l -3.9776,-0.5063 0,0 z M 1997,1158.4733 c -19.9918,-2.4875 -42.9971,-12.5411 -46.7278,-34.6243 -3.4089,-21.9023 7.6069,-48.7142 29.9212,-55.856 13.3876,-4.3099 28.7845,4.7089 37.7472,8.5182 6.7349,-14.3051 5.0819,-45.0136 28.8443,-33.2916 2.3712,12.9653 -8.9509,31.6275 -11.8805,46.7008 -7.6026,23.0638 -14.1101,46.6177 -22.2972,69.4122 -4.929,1.5814 -10.5708,-0.5691 -15.6072,-0.8593 z m 6.5035,-36.2233 c 7.3001,-14.6726 13.5701,-37.2888 -11.145,-37.0151 -18.1369,1.4477 -26.2605,27.2395 -20.0141,42.2388 4.2608,8.5178 27.2998,21.2381 27.9804,4.8426 1.0596,-3.3555 2.1192,-6.7109 3.1787,-10.0663 z M 1621,1139.3906 c -5.1133,-25.6881 -11.1206,-51.195 -16,-76.9295 13.8777,-10.8872 32.4188,-15.3324 50,-14.4611 -0.7265,5.2759 1.4021,13.4069 -1.0072,17 -14.1287,-1.1365 -34.2577,2.434 -23.7732,20.4528 3.312,16.5004 7.0997,32.9366 10.3486,49.4278 -5.3287,2.9026 -13.5971,4.5455 -19.5682,4.51 z m 226,-12.9395 c -20.9894,-4.0873 -33.7223,-26.1023 -30.0124,-46.5527 0.036,-25.343 26.2136,-47.6069 51.1705,-38.9793 18.1158,4.0115 27.1859,23.3534 24.3317,40.6034 4.6688,22.0102 -24.2163,6.2822 -36.5395,8.2945 -14.1767,-5.77 -26.2383,1.1181 -12.6849,14.2955 10.9828,15.7896 44.7636,-6.7419 39.6508,18.9779 -6.056,9.1688 -25.5748,3.1884 -35.9162,3.3607 z m 26.6406,-54.0566 c -0.3627,-21.3062 -33.0355,-20.1246 -34.573,0.01 8.5796,-1.2722 34.484,10.374 34.573,-0.01 z M 1698,1125.9782 c -23.0473,-1.382 -30.5125,-36.9729 -9.8259,-47.2726 9.4173,-10.6976 45.3054,1.9172 29.3314,-19.1322 -12.8934,-12.746 -41.3081,13.909 -38.442,-14.9702 17.027,-5.7573 39.8299,-12.1077 54.3108,2.3007 10.6745,13.826 7.7908,32.7704 10.9262,49.0847 -1.2979,8.249 8.4312,25.6046 -5.1762,25.2527 -13.456,2.9007 -27.2676,6.9883 -41.1243,4.7369 z m 22.0372,-16.9853 c 8.7519,1.3256 6.2393,-21.0565 0.6646,-21.9929 -15.8301,-6.3973 -37.0197,17.1539 -14.3714,22.762 4.5746,0.3775 9.1971,0.059 13.7068,-0.7691 z M 1788,1121.6353 c -20.6889,-1.9675 -19.1782,-25.4738 -18.7572,-40.7705 -0.3964,-27.1762 -0.1684,-54.3616 0.9648,-81.51804 10.0419,-1.82116 24.7265,-6.10015 19.7488,10.02644 0.5335,29.3348 -1.1803,58.7235 0.4247,88.0211 2.3815,9.8864 17.6746,8.4468 9.5496,22.0562 -0.6651,5.8704 -8.3404,2.3769 -11.9307,2.1848 z m -806.38691,357.6675 c 56.64941,-150.5968 157.35651,-283.8067 285.52931,-380.8814 1.698,-12.184 -17.4335,-26.7058 -24.2343,-39.8168 C 1074.7542,826.85906 906.64124,595.08264 738.04035,363.66231 711.95584,379.66509 688.95518,400.61182 664.85779,419.5312 591.18844,479.76434 522.71336,546.35229 459.5835,617.52815 305.16946,792.77272 185.48308,998.80493 111.68849,1220.4968 c -1.22071,14.1558 26.23042,11.9015 37.2624,18.9957 274.16722,89.1348 548.35417,178.2089 822.53291,267.3082 3.31677,-9.1878 6.7326,-18.3394 10.12929,-27.4979 z M 905.70135,1444.25 c -12.98119,-21.3949 17.90396,-26.0919 29.90344,-36.865 16.47861,-17.9202 22.50926,8.2723 24.90269,22.4409 -17.80575,5.3627 -35.71736,10.4015 -53.69846,15.1435 l -1.10767,-0.7194 0,0 z m -5.10753,-18.8661 c 4.67717,-14.2256 -14.35804,-35.637 4.09215,-41.7093 10.9524,-4.3678 23.91811,-19.1376 33.72558,-17.729 6.56206,16.6412 12.72766,35.3772 -9.0949,41.9865 -9.46865,5.5958 -18.34492,14.1353 -28.72283,17.4518 z M 889.92071,1370.75 c -13.9516,-21.7687 14.38952,-27.3096 27.74696,-37.9756 14.90449,-15.9493 16.53556,18.9844 16.65623,27.2264 -12.66222,9.5254 -25.47267,19.0153 -39.16594,26.9992 -2.41874,-5.139 -3.59652,-10.8288 -5.23725,-16.25 z m -9.8221,-35.4941 c -8.08052,-13.6267 -3.50682,-24.1855 11.33054,-28.9327 10.96168,-4.5232 29.69646,-27.433 29.74305,-3.1802 8.37931,14.8288 2.28382,25.5006 -12.59559,31.9448 -10.03785,5.4549 -26.81008,25.8606 -27.58712,3.3279 l -0.89088,-3.1598 z m -10.59293,-38.2356 c -14.50138,-21.8689 14.56094,-26.1319 27.48653,-37.0767 15.77252,-15.8934 14.90226,16.8389 18.41781,26.9386 -13.34291,8.4401 -26.99599,20.2309 -40.66659,26.0554 -2.42387,-5.0499 -3.63978,-10.5746 -5.23775,-15.9173 z m -9.01942,-32.504 c -11.02776,-18.0063 12.8597,-22.7667 23.59886,-31.8807 9.30274,-7.8816 18.07205,-12.5151 18.40715,3.4526 10.9277,16.8368 -11.80673,21.9382 -21.75693,31.0776 -10.15825,3.3094 -16.13196,22.2919 -20.24908,-2.6495 z m -8.81122,-31.601 c -12.50778,-20.2391 14.90012,-18.0342 27.73875,-23.0988 10.05186,-8.3009 21.26197,1.2521 16.65577,10.3914 -13.17524,8.825 -26.21326,17.8613 -39.56956,26.411 -2.51704,-4.1024 -3.35788,-9.1555 -4.82496,-13.7036 z m -6.73812,-25.1653 c -1.18481,-23.0251 -1.08432,-46.284 -3.13966,-69.1911 -24.12119,-86.8862 -48.21542,-173.77984 -72.36858,-260.65714 -12.48747,-10.35428 -29.3213,-6.06175 -44.70285,-8.34922 -66.85375,-8.248 -119.90675,-66.07067 -133.73685,-130.31441 -7.26316,-30.71051 -6.70832,-62.92966 -2.94788,-94.0825 7.87253,-46.64641 26.74926,-96.47405 69.08098,-121.99164 20.16231,-12.54454 44.92032,-12.40796 67.56404,-8.67765 55.54977,15.7333 97.99258,60.9467 125.29121,110.16512 30.79719,54.24413 35.438,124.92262 3.19035,179.60395 -13.46613,23.02943 -34.39464,41.16355 -57.34652,54.32489 -16.40042,13.19412 -3.60077,31.6113 -0.28279,48.65731 21.35511,77.03707 42.27542,154.29589 64.15628,231.14429 10.86936,19.8782 22.11595,39.5579 32.523,59.6832 -14.50221,6.6061 -30.60634,9.6045 -45.96762,13.9203 l -0.94014,-1.0984 -0.37294,-3.137 -3e-5,0 z M 752.49209,853.42406 c 12.92591,-6.76736 28.68766,-9.03099 42.23865,-10.64366 40.26881,-22.65325 64.2332,-67.66413 66.25552,-113.16207 3.90925,-63.66829 -30.63679,-124.01079 -76.62413,-165.72098 -27.65531,-24.65971 -65.45184,-44.90412 -103.44542,-35.45279 -40.03267,12.17395 -61.8071,52.63099 -72.6095,90.2839 -16.48221,60.77963 -12.72948,131.71134 27.3971,182.82552 26.11646,34.0077 68.5341,58.24807 112.235,54.36374 l 1.94096,-0.61546 2.61182,-1.8782 0,0 z m 193.02732,289.40504 c -32.42802,-6.6912 -59.08073,-34.5695 -67.59985,-66.1387 0.82582,-6.7202 -5.12783,-19.9697 2.8482,-22.7641 29.587,-11.2013 59.16735,-22.4202 88.76276,-33.5992 7.83723,12.3222 17.34256,24.7534 31.32818,30.7148 -12.79467,30.5132 -25.46603,61.0781 -38.26811,91.5882 -5.60626,0.8946 -11.428,0.6338 -17.07118,0.199 z M 969.15165,1099 c 5.91067,-14.2419 11.98411,-28.4178 17.71428,-42.7339 -10.68285,-5.0721 -15.96758,-23.5735 -27.6354,-20.3999 -23.79069,8.8567 -47.65374,17.5993 -71.02659,27.512 -2.08303,15.9488 7.67946,31.791 18.2672,43.283 11.89263,13.1368 28.42318,26.3442 46.79346,25.4242 7.79586,-9.344 10.5361,-22.2763 15.88705,-33.0854 z m 25.29413,-53.1351 c -7.81998,-6.7736 -23.05152,-17.8743 -21.5197,-28.2554 10.10679,-9.635 21.31807,-25.38977 37.15092,-18.78891 18.3002,6.12861 16.9837,31.14271 2.0945,40.42941 -5.5717,4.4468 -10.0391,14.1454 -17.72572,6.6149 z M 3023,1366.0078 c 142.8946,-46.4488 285.8058,-92.847 428.6735,-139.3787 -91.3533,-275.9316 -252.6798,-528.21713 -464.5777,-727.14825 -50.5095,-47.69585 -103.8113,-92.56938 -159.7969,-133.69719 -12.9222,-0.50705 -19.9919,23.85175 -30.4347,33.64656 C 2628.135,631.52145 2459.3681,863.58651 2291.0834,1096 c 52.9067,40.7529 102.4044,86.2018 144.8689,137.877 66.8782,80.2355 118.772,172.7351 153.2781,271.2707 14.8793,-0.7249 30.9224,-9.4063 46.2466,-13.2629 129.1816,-41.9365 258.3523,-83.9068 387.523,-125.877 z m -221.5,-137.0995 c -83.9729,-7.8152 -159.9895,-66.9893 -189.1971,-145.9447 -32.4797,-82.2508 -10.1376,-182.0711 53.5685,-243.23262 43.8786,-43.28477 106.05,-67.91551 167.7855,-64.24066 70.499,0.60514 138.2537,39.31694 178.2383,96.81945 42.6013,59.9547 52.5329,141.08843 26.3523,209.72383 -31.299,87.549 -121.2317,149.7706 -214.241,147.8334 -7.5072,-0.1126 -15.0244,-0.3021 -22.5065,-0.9587 z m 43,-6.917 c 6.9114,-3.1133 24.2213,2.0766 24.5,-7.2946 2.6855,-8.2637 -4.6328,-8.4378 -10.8343,-9.515 -18.9296,-3.4179 -36.6885,-11.6432 -55.4935,-15.1449 -25.1637,6.816 -51.2534,2.2327 -76.7057,1.601 -3.7754,15.8582 26.2422,15.5559 36.7881,22.0905 26.428,7.6887 54.3157,10.8612 81.7454,8.263 z m 41.7671,-24.0508 c 25.2187,-9.0605 49.8729,-21.585 69.8803,-39.5668 7.073,-15.6597 7.2819,-34.3685 3.5581,-51.0015 -21.9313,-7.5688 -44.3384,-13.7583 -66.8664,-19.3097 -27.6934,13.3758 -54.2164,28.9686 -80.4711,44.9434 -1.9852,16.9347 -3.0589,33.9555 -3.6752,50.9912 23.8542,11.6621 50.9126,24.8333 77.5743,13.9434 z m -167.9468,-11.5166 c -18.6013,-19.1166 -32.4865,-42.4239 -39.4395,-68.2238 -19.443,-18.5055 -37.8462,-38.1905 -53.2287,-60.2001 -7.9382,2.5977 -15.9283,6.0977 -9.5622,14.776 17.6011,52.0902 55.1953,96.8601 103.4101,123.2645 0.1964,-3.2145 1.1152,-6.8604 -1.1797,-9.6166 z m 275.117,-41.9239 c 29.4672,-34.6604 47.9977,-78.7896 51.2175,-124.1785 -11.3061,4.0522 -22.5983,8.2867 -33.9864,12.1785 -9.6889,25.8535 -23.5797,49.9692 -41.3496,71.1179 -6.4637,15.3386 -3.268,33.4077 -4.8118,49.874 0.7391,8.4975 13.666,13.7481 17.7839,3.7162 3.8283,-4.1352 7.5231,-8.3928 11.1464,-12.7081 z m -174.2872,-22.0674 c 24.4194,-10.7911 47.5702,-24.282 69.7706,-39.0567 4.9471,-27.7286 4.4265,-56.3987 3.2038,-84.51787 1.7529,-7.40593 -7.0731,-8.4845 -11.4688,-12.21287 -22.6903,-14.17761 -46.0736,-27.20302 -69.8712,-39.42061 -24.5101,12.85776 -49.6764,25.06645 -71.68,41.99729 -5.1916,17.02146 -2.2194,36.40476 -3.13,54.35176 2.49,15.1397 -4.1461,35.5226 7.4855,47.0614 20.4558,13.953 41.5111,27.5775 64.7837,36.3528 3.7253,-1.2959 7.3018,-2.9656 10.9064,-4.5552 z m -126.0291,-15.0191 c 13.2459,-5.5323 25.4352,-13.1432 37.6752,-20.5588 1.6918,-31.4462 1.366,-63.0224 -0.6113,-94.43935 -6.7873,-15.77604 -22.313,-26.16953 -32.6533,-39.79932 -6.2346,-4.59762 -9.8676,-15.36113 -17.0331,-17.39071 -17.9477,2.68864 -33.3242,13.75181 -47.1781,24.87682 -6.5232,29.67108 -7.6561,60.64356 -3.3184,90.67376 8.4228,26.275 29.5418,46.4196 52.0998,61.2241 3.7471,-1.3461 7.371,-2.9997 11.0192,-4.5865 z M 3028,1021.0083 c 23.0835,1.3108 18.1569,-23.19979 16.5264,-38.47798 -3.0186,-40.16371 -18.7291,-78.68215 -41.9935,-111.31785 -11.9035,5.87327 -39.0415,4.31949 -33.4182,23.83304 0.5657,21.88971 0.9361,43.78377 1.3853,65.67604 14.9085,19.82562 27.5442,41.27405 39.5625,62.86095 5.6047,2.2582 12.2616,-1.943 17.9375,-2.5742 z m -119.7452,-37.13389 c 18.8479,-7.36125 37.7718,-14.84729 55.6046,-24.43334 3.4367,-24.64847 5.7583,-50.75572 -1.6352,-74.93742 -18.9045,-25.40285 -47.6464,-41.82894 -76.3125,-54.17425 -17.0505,1.08333 -33.4891,10.08179 -48.6895,17.93325 -8.4803,6.85584 -24.3571,11.22453 -26.9841,22.25733 0.8813,23.25108 1.1162,46.56285 3.7446,69.70423 25.4137,19.0019 53.896,33.69831 82.2721,47.75813 4.0656,-1.17134 8.0228,-2.67441 12,-4.10793 z m -254.9342,-42.82015 c 8.1884,-6.88636 22.385,-8.07561 28.1389,-16.60711 8.1293,-25.73747 21.8071,-49.6915 39.4728,-70.07051 -5.6814,-12.4334 -7.6148,-26.52342 -13.3303,-38.63322 -41.0765,26.10558 -72.9732,66.00634 -89.9646,111.57757 4.5022,8.77704 9.0184,17.56903 14.452,25.81668 7.016,-4.13409 14.1294,-8.09946 21.2312,-12.08341 z M 2843.1932,841.75 c 11.9799,-6.08333 23.9597,-12.16667 35.9396,-18.25 -1.0066,-12.7859 -4.4645,-25.25292 -9.1482,-37.15714 -53.038,-10.3 -110.5273,-2.23441 -156.647,26.48048 0.017,11.72468 7.7793,22.80202 12.0596,33.84698 3.9414,9.00455 18.4578,-2.38326 26.6881,1.07446 20.1575,-3.55268 39.7273,8.43093 57.4678,10.78756 11.2832,-5.45242 22.4594,-11.12363 33.6401,-16.78234 z M 1322,1060.6587 C 1454.8376,975.12315 1612.0851,928.53713 1770,927 c 0,-302 0,-604 0,-906 -154.2745,0.01127 -308.448,21.788136 -457.215,62.421516 -199.8761,54.625204 -389.21468,146.093044 -557.76743,266.432054 3.4279,9.03313 14.11092,19.36252 19.8296,28.83415 170.82021,235.05034 341.57523,470.14806 512.35733,705.22608 11.3042,-8.1845 23.0382,-15.7432 34.7955,-23.2551 z m -11.5,-114.05906 c -36.1054,-6.62622 -63.36,-33.47167 -92.4781,-53.76755 -43.0092,-30.61428 -84.5027,-69.12517 -100.7091,-120.96092 -24.6556,-75.58955 -24.9731,-158.57188 -62.8077,-229.9027 3.2233,-12.84825 22.8759,-16.23361 34.2816,-21.50244 56.4338,-15.79167 117.0143,-11.62441 172.0305,-33.57137 41.8684,-14.49816 80.8563,-39.0825 125.438,-44.56769 8.1272,1.2225 26.8786,-5.50922 25.1634,7.54304 3.3211,65.32766 30.8929,125.53361 49.7579,187.2503 13.9246,39.45042 18.8728,82.55553 8.9959,123.56194 -8.5128,40.30164 -28.6289,76.76205 -43.9421,114.68557 -13.4414,32.96914 -39.9785,62.79725 -76.0939,70.21888 -13.0029,2.24071 -26.5501,2.88511 -39.6364,1.01294 z m 29.9672,-61.27179 c 28.5111,-12.04635 42.0175,-43.14326 52.9555,-70.04202 7.0309,-22.21704 17.5501,-43.02492 28.0773,-63.73527 0.41,-8.2402 2.8657,-31.8748 -10.0033,-22.11575 -15.2798,19.34171 -25.3389,43.4384 -47.0109,57.0751 -32.6138,21.98688 -74.1551,31.67675 -113.0416,24.67971 -21.8231,-3.15319 -38.3823,-19.80526 -59.5887,-24.3482 -12.4467,10.60529 13.0608,30.70584 24.6445,36.62842 32.5962,21.1115 59.0198,53.71293 98.5095,62.44383 8.3444,1.81858 17.285,2.27197 25.4577,-0.58582 z m -170.281,-85.31582 c -5.4839,-23.68879 17.3456,-32.59282 36.6456,-31.9521 10.4639,-2.59247 29.1961,-8.63492 31.7463,-17.27608 -16.3758,9.02392 -34.688,13.49188 -53.317,14.16032 -20.7486,0.0462 -23.8705,24.10466 -16.7779,39.15741 2.2206,9.25484 2.1852,0.25519 1.703,-4.08955 z m 140.9768,-40.79531 c 6.8629,-8.49527 7.6057,-20.48304 21.2369,-20.42445 6.6909,-17.1608 -11.3215,-30.72352 -18.3509,-44.81553 -11.1114,-16.60782 -19.3901,-34.89544 -26.8412,-53.29124 3.502,31.86779 25.8679,56.51151 41.1558,83.37581 3.3025,10.5259 -22.5823,3.3463 -17.0798,19.60632 3.2156,19.77617 -20.2444,19.55169 -24.2363,2.32507 -7.4499,-11.31063 -27.6244,9.57331 -22.2808,-12.31853 1.6793,-28.77678 6.4065,-59.35786 -6.4055,-86.36848 5.5649,29.01699 4.8259,58.6431 2.487,87.95772 -2.8269,12.87094 7.8537,27.25385 20.7957,17.82879 7.7132,6.49752 20.0261,17.11635 29.5191,6.12452 z m 130.4615,-35.57581 c -1.9378,-21.17159 -25.6942,-26.76926 -40.8315,-14.86047 -14.7772,7.86484 -31.7001,10.52894 -48.293,10.36052 20.9997,8.29918 43.2309,-1.37241 62.6204,-9.48531 15.4735,-6.72617 26.3648,24.79541 28.6265,22.92695 -0.4237,-3.03967 -1.2327,-6.01047 -2.1224,-8.94169 z m -267.9064,-53.18204 c 20.255,-2.03835 40.2285,-7.37621 57.2792,-18.81401 -11.2394,-20.95735 -40.5583,-26.77938 -59.8837,-13.56109 -15.9797,4.82926 -26.9688,20.00431 -17.0201,34.91623 6.5657,-0.63331 13.0903,-1.6517 19.6246,-2.54113 z M 1345,626.86479 c 16.1623,-4.68721 31.719,-11.23336 47.1637,-17.86388 -4.5906,-14.25878 -13.174,-24.98308 -29.7832,-21.1144 -19.205,-1.51525 -40.4837,7.52324 -46.4711,27.17989 -12.7792,23.82123 17.8191,12.30799 29.0906,11.79839 z m -215.5476,-13.81384 c 22.0248,-16.9393 53.4174,-29.00762 80.5123,-17.31384 7.1878,-0.41986 18.1405,22.83699 19.7493,11.31112 4.5559,-8.34157 -4.2058,-13.38135 -10.7197,-16.83297 -23.0205,-9.02073 -50.1881,-5.36738 -71.9791,5.4566 -3.2622,-0.88311 -31.5466,27.78584 -17.5628,17.37909 z m 167.7878,-26.27784 c 4.6196,-26.33691 31.6494,-39.33889 55.8678,-41.61764 9.1241,-2.79328 31.5933,1.25983 31.2398,-0.597 -31.5079,-13.23794 -69.3064,0.69613 -91.1642,25.26226 -13.0925,5.17185 0.9621,35.36986 4.0566,16.95238 z m 196.2598,9.59687 c -14.0138,-4.7053 -37.9319,-1.15861 -39.4432,-20.7734 -7.2666,-22.42032 -15.7758,-44.69317 -20.2089,-67.84444 30.3893,-3.34175 62.3204,0.39186 89.225,15.79806 15.0867,7.29104 27.8803,18.84613 43.4024,25.13186 21.6313,-4.1238 15.9416,-32.92803 12.5677,-48.70516 -8.3743,-20.78711 -27.8756,-35.52974 -49.5084,-40.49524 -25.4344,-6.30862 -51.2055,-17.01312 -77.8329,-13.43869 -8.6675,-1.877 -25.3706,15.17508 -27.7057,9.17928 0.1904,-11.15688 2.4807,-26.36343 -13.8648,-24.72817 -18.4909,-0.62184 8.5211,-23.35052 18.4258,-22.79463 8.1587,-3.26677 37.8066,2.38989 14.394,-3.44207 -16.4551,-1.38025 -36.8462,-0.56508 -46.1428,15.58039 -4.1473,4.79586 -6.9225,12.06357 -14.5312,10.57064 -14.1691,5.1772 -27.0921,4.86358 -22.2947,-13.49244 -2.085,-29.00507 -4.0758,-58.6418 4.0122,-87.00431 17.6584,-67.91687 51.0819,-132.27797 54.4501,-203.43689 10.51,-9.68545 30.2548,-2.56365 43.7872,-0.27303 49.6608,14.69291 94.5293,43.68268 146.3916,51.40914 42.2347,8.33597 87.3486,5.92261 127.066,24.37467 23.8645,5.55696 8.2893,26.1032 2.2008,40.29163 -24.4469,62.9849 -26.5395,131.99015 -48.8593,195.58827 -11.4839,29.4713 -32.5177,53.71043 -47.8193,81.14609 -23.4415,39.67967 -64.1456,71.03116 -110.5746,76.62433 -12.3408,0.77492 -24.7832,1.63429 -37.137,0.73411 z m 128.562,-91.48972 c 1.6422,-17.52473 2.4334,-39.70086 -14.3256,-50.54154 -5.7622,-5.43082 -25.0267,-15.56616 -26.6855,-11.97225 17.9052,5.34837 34.6172,21.78555 31.4476,41.79785 2.8879,10.47025 -8.2879,36.88046 3.7534,37.41878 2.5555,-5.3314 4.7054,-10.87162 5.8101,-16.70284 z m -96.3587,-83.38478 c 8.1003,-4.63556 14.3043,-11.57668 24.0046,-6.06461 8.8721,-3.44919 8.0956,-12.25405 7.4359,-19.89112 -0.5116,-26.72875 -2.1223,-53.75064 2.5232,-80.20609 -12.9761,27.90847 -4.6967,59.05233 -5.6326,88.43728 -6.0298,3.12372 -19.4404,-6.70645 -23.7516,6.63502 -7.2082,17.30458 -24.5331,2.85179 -19.5852,-11.31135 -1.4453,-11.68595 -26.2916,-4.41127 -12.3622,-19.09998 14.644,-22.5897 32.4513,-44.86367 35.4273,-72.59832 -8.7495,24.71202 -22.3888,47.23329 -37.302,68.71023 -8.6779,8.91755 -10.373,28.22525 6.2614,27.24821 3.6754,9.11726 10.1023,24.21319 22.9812,18.14073 z m 123.6387,-73.52425 c 12.9274,0.67282 29.0082,-6.8056 14.4877,-19.54792 -16.4823,-17.35261 -41.5555,-20.14248 -63.4625,-26.25966 -24.8533,3.44483 1.5134,34.03289 13.1696,40.60887 10.6467,6.57916 23.7589,7.01608 35.8052,5.19871 z m 41.5164,-43.52746 c -7.9443,-23.84142 -35.7979,-27.82816 -54.2024,-40.26904 -6.8349,-10.89093 -26.8075,-28.19901 -27.7325,-4.70516 15.9535,1.21455 25.8355,18.8502 43.2882,19.72735 15.2152,3.7857 32.9118,19.26585 39.3157,28.1095 l -0.669,-2.86265 0,0 z M 1484.5,303.63865 c 8.8394,-3.94609 25.1035,-8.63697 26.7204,-18.43317 -5.7003,-15.48464 -28.5658,-12.35984 -41.9794,-18.255 -12.8621,-3.57804 -47.552,-3.22545 -42.039,14.43292 15.3354,14.69724 34.946,28.40936 57.298,22.25525 z m -48.2963,-72.80948 c 18.8582,-4.72933 37.9877,0.75967 56.5519,3.79118 8.3291,-4.77626 23.249,-0.34639 27.2812,-0.7165 7.5609,-18.55552 -14.5286,-14.90576 -25.0019,-9.00585 -22.4771,3.74013 -48.9402,-8.95096 -68.5749,7.28253 -13.001,12.16051 4.0877,-2.51282 9.7437,-1.35136 z M 2539.032,719 C 2628.3265,596.16345 2717.4286,473.18477 2806.8824,350.4654 2607.6683,207.56383 2378.6111,106.30486 2138.3554,57.025895 2024.1507,33.736727 1907.6096,20.801487 1791,21 c 0,302 0,604 0,906 141.1927,1.41502 281.9258,38.64669 405.0615,107.8446 26.751,14.622 52.0899,31.9036 77.7026,48.1685 25.5716,-32.95 49.5816,-67.8555 74.5528,-101.54295 C 2411.9123,893.9973 2475.4771,806.50225 2539.032,719 z m -312.1603,156.47324 c -69.1299,-8.57717 -138.6754,-36.99839 -185.7465,-89.76113 -19.4995,-23.07316 -34.5017,-52.32994 -31.4954,-83.34454 2.1125,-37.06061 33.7637,-65.17851 66.4215,-78.06005 47.5456,-18.78267 100.7958,-17.07077 150.0671,-6.63344 3.0623,19.04954 -22.4172,6.77226 -34.3237,6.67476 -30.9429,-0.95647 -62.8447,-3.50698 -92.6793,6.68167 -32.4137,8.86541 -65.426,33.65805 -67.5868,69.70443 -1.5524,39.85904 27.4799,73.0523 57.4418,95.69548 44.247,32.10335 98.1492,50.78516 152.565,54.68014 40.5622,2.25775 83.9519,-2.04962 117.8629,-26.43809 23.5283,-15.96241 35.011,-46.47656 27.3088,-73.89306 -4.5643,-17.8508 -15.396,-33.29038 -26.5693,-47.45096 7.8875,-24.63846 23.0007,9.85918 30.91,18.76067 18.4095,28.4763 24.1195,68.03503 4.622,97.45913 -24.1941,37.17251 -70.0641,52.44507 -112.2683,56.18845 -18.809,1.0726 -37.75,1.47611 -56.5298,-0.26346 z M 2038.292,758.91195 c 20.251,1.85224 -4.1446,-15.12015 -3.5933,-25.18191 1.7838,-20.83547 -30.1478,-18.31054 -19.1558,1.53508 3.4452,12.48595 9.7923,23.89276 16.9282,34.6141 1.2873,-3.94661 1.7728,-8.68147 5.8209,-10.96727 z M 2003.5,873.88191 c -50.1528,-4.2237 -103.8508,-20.88116 -136.2742,-61.65231 -19.598,-23.85739 -21.6843,-59.9236 -3.8601,-85.35025 28.2016,-41.28483 79.3169,-59.30479 126.9326,-65.70175 10.6365,-0.52522 39.8104,-7.95436 24.6223,8.62127 -47.3593,3.17256 -98.6791,15.33587 -131.1675,52.51283 -18.8129,21.09086 -19.6126,55.04111 -1.0898,76.58895 29.6028,35.47001 77.2754,48.96285 121.7178,52.98764 33.2818,2.85123 66.8253,-1.65466 98.8208,-10.88829 8.5899,3.85336 36.0312,13.1988 13.4072,17.65608 -35.9187,13.51144 -74.9387,18.00383 -113.1091,15.22583 z M 1907.25,698.4376 c 5.4941,-19.52495 -32.1743,10.03796 -11.942,9.04298 4.0553,-2.91287 8.0009,-5.97837 11.942,-9.04298 z M 2156,828.83448 c -13.0413,-2.78332 -17.9261,-7.06525 -5.2179,-13.26691 23.5312,-16.63246 38.1901,-48.60518 25.9923,-76.41172 -19.1124,-38.68412 -62.9283,-56.73617 -103.0662,-64.56559 -6.3375,-3.37543 -24.9915,-0.92149 -26.5918,-5.69502 7.8265,-14.41858 25.775,-4.57687 38.2271,-3.30487 41.615,10.2604 85.858,30.11295 106.6467,69.86124 13.488,26.31416 7.4633,59.42793 -12.418,80.82274 -6.9897,5.88029 -12.6145,19.87392 -23.5722,12.56013 z m 84,-48.72022 c -27.0281,-7.03604 -42.1715,-39.58902 -30.6197,-64.97274 10.7805,-28.51257 50.301,-37.82029 73.4926,-18.64695 25.7276,18.55438 23.4543,62.18542 -3.9831,78.1919 -11.3204,7.07419 -26.0628,9.17341 -38.8898,5.42779 z m -166.8429,-50.63082 c -13.7535,-6.49869 -41.6922,-2.34188 -37.164,-24.18721 -1.7783,-13.62972 21.8017,3.65088 29.549,1.69705 15.4865,3.80909 30.9719,7.62223 46.4579,11.43331 -0.7649,8.60078 4.1825,27.16603 -10.9582,18.28692 -9.3096,-2.35297 -18.6001,-4.78064 -27.8847,-7.23007 z M 2117,728.61715 c -0.843,-6.76189 -0.6218,-12.74741 7.673,-12.84331 13.1267,-4.99485 27.7901,-10.78103 36.4478,4.94302 -3.9767,9.15162 -29.2611,11.43219 -41.5126,17.62627 -4.692,3.65121 -1.7091,-7.72965 -2.6082,-9.72598 z M 2304.5142,728.25 c -3.0206,-29.19352 -33.7771,-52.01482 -62.454,-43.78246 -12.6212,8.14386 -18.1482,2.491 -18.9325,-11.68438 -7.0415,-33.98042 13.5154,-70.14513 45.7727,-82.38887 36.1838,-14.73246 81.1964,4.98905 94.7699,41.64102 17.3865,39.75345 -9.2917,90.10632 -51.6679,98.70137 -3.1546,0.79134 -7.6058,2.99616 -7.4882,-2.48668 z m -128.3103,-19.54474 c -5.8264,-4.70126 -9.6228,-8.91567 0.4078,-9.81399 14.5649,-4.76873 29.0927,-9.65399 43.712,-14.25391 10.1916,8.89406 -5.9789,14.31008 -9.6193,21.7122 -10.4518,3.95905 -26.7689,16.10736 -34.5005,2.3557 z M 2074,704.57458 c -12.1667,-3.08031 -24.3333,-6.16063 -36.5,-9.24094 -1.1772,-13.78674 8.2984,-27.02332 23,-19.87418 28.6244,4.45197 57.6952,12.47111 81.5,29.54003 -15.8968,7.84469 -33.4924,11.04651 -50.3048,3.9817 -5.9046,-1.44398 -11.8025,-2.91503 -17.6952,-4.40661 z m -108,-3.03467 c -11.8333,-3.10762 -23.6667,-6.21524 -35.5,-9.32286 10.1043,-4.45133 20.8091,-8.97043 31.5041,-10.97361 14.7494,3.68954 29.4988,7.3791 44.2482,11.06868 -0.6367,10.63918 0.6212,25.26945 -14.6664,15.83224 -8.5402,-2.15617 -17.0661,-4.36884 -25.5859,-6.60445 z m 190.7242,-8.95106 c -29.1823,-19.33606 -63.4813,-29.46397 -97.9511,-33.93335 8.465,-14.64934 36.7946,-24.87011 56.4176,-29.04081 34.8676,-7.21793 71.1843,-5.45361 105.8656,1.92009 -3.8672,15.54549 -4.5486,32.82994 -2.3949,47.93406 -17.4769,7.39943 -35.8788,12.44901 -53.8565,18.51181 -2.7652,-1.68805 -5.4031,-3.5714 -8.0807,-5.3918 z m -167.0375,-9.07636 c -9.0554,-1.99091 -25.0657,-5.72856 -6.8917,-6.95246 13.9074,-3.61844 41.1053,-6.1563 22.6945,10.97403 -5.271,-1.32703 -10.5369,-2.67432 -15.8028,-4.02157 z M 1869.5,676.4747 c -12.7897,-6.82273 -42.5071,-1.26535 -36.4483,-23.39853 7.3121,-8.15069 28.3815,5.85817 40.9271,6.19514 18.0293,4.98208 36.7514,8.16133 54.2453,14.7036 -13.3412,8.03068 -28.1531,14.10896 -43.267,6.49561 -5.157,-1.31382 -10.309,-2.64747 -15.4571,-3.99582 z m 17.5,-18.43715 c -13.5694,-4.104 -35.4054,-7.67588 -43.5066,-12.81323 172.2003,-46.03955 344.5278,-91.60198 516.7986,-137.37702 88.6572,13.0144 177.4595,25.119 265.9528,39.19059 -85.5039,28.41924 -171.1584,56.40349 -256.9474,83.95026 -10.5513,-20.74689 -27.1432,-39.71361 -50.3467,-46.19788 -31.9744,-10.82795 -68.8641,2.67161 -88.1296,29.78375 -11.7978,-0.80933 -24.6947,-4.93935 -37.0266,-5.7304 -53.7516,-6.4759 -113.4388,-0.72749 -156.8178,34.58421 -6.9598,3.5544 -10.3194,14.96606 -19.1341,13.57872 -27.4801,-0.12052 -54.3519,6.60248 -80.8426,12.88685 -16.8027,-3.30683 -33.3721,-7.76991 -50,-11.85585 z M 2371.8296,644.25 c -2.1719,-17.10042 27.4326,-14.24355 39.8607,-22.01299 74.4491,-24.38123 148.776,-49.20603 223.4146,-72.96475 0.8491,6.21125 3.354,17.29707 -6.2856,17.26126 -84.7748,28.51184 -169.4249,57.40049 -254.3496,85.46176 -1.6423,-2.27257 -1.9503,-5.12011 -2.6401,-7.74528 z M 2049,524.14967 c 0,-12.35283 0,-24.70565 0,-37.05848 11.749,-0.12725 23.5035,-0.61616 35.25,-0.2822 1.2968,23.95757 0.5543,47.98568 0.75,71.97524 -12.0056,0.72252 -24.0089,1.48824 -36,2.4239 0,-12.3528 0,-24.70576 0,-37.05846 z m -17.25,33.13979 c -7.571,-0.5146 -11.8184,-3.60337 -9.75,-11.58372 0,-19.23525 0,-38.47049 0,-57.70574 8,0 16,0 24,0 0,24 0,48 0,72 -4.8624,-0.044 -9.5476,-1.64374 -14.25,-2.71054 z M 2545,525.60205 c -8.2348,0.10409 -9.7976,-5.01116 -8.6096,-12.27831 -0.1415,-13.00727 -0.2831,-26.01455 -0.4247,-39.02182 11.7223,-1.83165 24.4123,-2.30482 19.9257,13.8597 -2.3332,11.48719 5.4215,34.85522 -4.5211,39.02699 l -2.9713,-0.72219 -3.399,-0.86433 0,-4e-5 z m 13,-24.85635 c 0,-9.17443 0,-18.34886 0,-27.52329 10.0812,-0.20375 20.1706,-0.87296 30.25,-0.49001 1.0946,17.81809 1.0886,35.79418 0,53.61273 -10.0333,1.20967 -20.1655,1.3256 -30.25,1.92385 0,-9.17442 0,-18.34889 0,-27.52328 z m -594,-18.14418 c -4.6946,-2.53497 -15.8445,0.16856 -14.541,-7.23389 -0.1641,-16.10808 -0.3281,-32.21616 -0.4921,-48.32425 10.8327,2.21032 21.6875,4.31054 32.5331,6.45662 -0.1328,17.26345 1.105,34.60892 -0.2667,51.80859 -5.2653,1.1835 -11.7298,-2.19586 -17.2333,-2.70707 z m 20,-22.5082 c 0,-8.63556 0,-17.27111 0,-25.90667 77.5794,-2.19073 155.2341,-2.00949 232.8428,-3.20221 142.385,-1.34345 284.7674,-3.36291 427.1572,-3.98444 0,13.5957 0,27.19139 0,40.78709 -217.0609,6.77471 -434.16,12.42286 -651.25,18.21468 -8.5349,2.25908 -10.0484,-2.50186 -8.75,-10.07408 0,-5.27812 0,-10.55625 0,-15.83437 z m -10.5,-31.04619 c -16.9811,-4.19237 24.4325,-1.25442 31.6891,-2.39901 197.9502,-1.54493 395.8973,-4.24888 593.854,-4.51649 6.4385,-0.57641 35.4556,1.41098 14.7655,1.65007 -208.1147,2.58526 -416.2375,4.81796 -624.3571,6.78119 -5.3413,-0.0934 -10.7365,-0.23399 -15.9515,-1.51576 z"
     style="fill:#000000;fill-opacity:1" />
</svg>
